<?xml version="1.0" encoding="UTF-8" standalone="no"?>
<!DOCTYPE svg PUBLIC "-//W3C//DTD SVG 1.1//EN" "http://www.w3.org/Graphics/SVG/1.1/DTD/svg11.dtd">
<svg width="100%" height="100%" viewBox="0 0 936 371" version="1.1" xmlns="http://www.w3.org/2000/svg" xmlns:xlink="http://www.w3.org/1999/xlink" xml:space="preserve" xmlns:serif="http://www.serif.com/" style="fill-rule:evenodd;clip-rule:evenodd;stroke-linejoin:round;stroke-miterlimit:2;">
    <g id="Layer_1-2">
        <path d="M254.2,163.9C250.3,169.3 246.7,174.4 243,179.4C237.4,186.9 231.7,194.3 226,201.8C221.8,207.2 217.1,208.8 210.5,207.1C203.1,205.2 198.3,200.2 194.3,194.1C187.2,183.3 182.5,171.3 178.9,159C176.5,150.9 175,142.6 173.1,134.3C172.9,133.5 172.5,132.7 172,132.2C162.1,123.4 157.9,112 156.2,99.3C156,97.7 155.9,96.1 155.8,94.4C156.5,94.5 157,94.4 157.4,94.5C173.5,100.1 190.1,100.8 206.9,99.7C228.5,98.3 249.4,93.3 269.9,86.6C270.8,86.3 271.6,86.1 272.4,85.8C275.6,92.3 270.8,112.3 264.4,118.5C264.1,115.9 263.8,113.7 263.5,111.4C263.4,110.8 263.4,110.2 263.3,109.6C262.9,106.7 262.2,106.1 259.4,107.1C256.5,108.2 253.6,109.5 250.8,110.9C244.6,113.9 238.2,116.5 231.1,116C229.4,115.9 227.7,115.3 226,115C223.4,114.6 220.9,114.2 217.9,113.7L217.9,126.4C217.9,128.2 218.1,129.9 215.7,130.8C213.8,131.6 213.7,135.5 215.3,137.4C216.1,138.3 217.1,139.1 218.1,139.7C219.8,140.7 221.6,141.6 223.3,142.6C226.9,144.6 227,146.1 223.5,148.4C222,149.4 220.2,149.9 218.6,150.9C218,151.3 217.5,152.3 217.4,153.2C217.3,153.5 218.6,154.3 219.2,154.3C222.3,154.1 225.4,153.6 228.5,153.4C232.1,153.1 235.6,152.9 239.2,152.9C240.6,152.9 242.6,152.9 242.4,154.9C242.3,155.6 240.4,156.6 239.3,156.8C232.3,157.5 225.3,158 218.3,158.5C216.8,158.6 215.2,158.4 214.6,160.4C215.8,160.8 217,161.4 218.2,161.4C222.2,161.5 226.3,161.5 230.3,161.5C231,161.5 231.8,161.6 233.2,161.7C232.1,162.8 231.4,163.7 230.6,164.2C227.1,166.7 223.1,167.6 219,167.8C215.9,167.9 212.8,167.8 209.7,167.8C211.4,175.2 219.6,180.3 227.2,178.9C233.2,177.8 238,174.5 242.6,170.7C244.5,169.1 246.5,167.5 248.2,165.6C249.8,163.6 251.6,163.3 254.2,163.9ZM207.4,135.8C207.5,128.9 203.4,125.5 197.6,126.6C196.4,126.8 196,127.3 195.9,128.5C195.5,134.4 195.1,140.3 194.6,146.2C194.2,150.7 195.6,151.7 199.7,149.6C201.3,148.7 202.8,147.4 203.9,145.9C206.3,142.7 207.3,138.8 207.4,135.8Z" style="fill: #fff;"/>
        <path d="M173.1,61.9C176.2,61.7 179.5,61.6 182.7,61.4C199.9,59.9 217.2,58.6 234.4,56.9C243.9,55.9 253.3,54.2 262.7,53C267.5,52.4 272.3,51.8 277,51.9C282.1,52 286.8,53.6 288.7,59C289.5,61.3 289.5,64 289.9,66.5C289.5,66.7 289.1,66.9 288.8,67.1C288.3,66.3 287.8,65.5 287.1,64.8C284.5,62.1 281.4,60.3 277.6,59.7C275.7,59.4 275,60.1 275.2,61.9L275.2,62.1C275.2,66.1 273.4,68.8 269.6,70.1C255.7,74.8 241.4,77.4 227,79.3C201.8,82.6 176.5,83.1 151.2,82.2C149.2,82.1 148.1,81.4 147.4,79.6C146.5,77.4 145.4,75.3 144.5,73.2C142.7,69.2 143.9,66.4 147.9,64.8C150.1,63.9 152.3,63 154.5,62.3C156.5,61.7 157.4,60.6 157.6,58.4C158.5,49.8 159.7,41.1 160.8,32.5C160.9,31.8 161.3,30.7 161.8,30.5C163,30.1 164.3,30.1 164.2,32C164.2,34.4 164.1,36.7 164.3,39.1C164.4,40.1 164.8,41.3 165.4,41.9C171.1,47.1 173.9,53.3 172.7,61.1C172.8,61.3 172.9,61.4 173.1,61.9Z" style="fill: #fff;"/>
        <path d="M240.9,220.9C240.9,225 241,229.1 240.9,233.3C240.9,234.4 240.4,236.4 240,236.4C238.4,236.5 236.3,236.6 235.1,235.7C231.3,232.8 227.9,229.4 224.3,226.2C221.5,223.7 216,223.9 213.3,226.5C210.5,229.2 207.6,231.8 204.9,234.6C203.4,236.2 201.9,236.8 199.7,236.7C193.4,236.6 193.4,236.7 193.4,230.4C193.4,224.1 193.5,218 193.4,211.9C193.4,210 194,209.2 196,209.2C198.7,209.2 201.1,209.6 203.4,211.1C205.5,212.5 207.8,213.8 210.1,215C211.9,215.9 213.8,216.8 215.7,217.2C219.8,218 223.2,216.6 226.1,213.5C228.5,211 231.3,208.9 234,206.6C234.6,206.1 235.2,205.6 235.9,205.4C239.6,204.4 240.9,205.3 240.9,209.1L240.9,220.9Z" style="fill: #fff;"/>
        <path d="M251.6,236C251.6,234 251.6,232.1 251.7,230.1C252.3,219.6 252.3,209.2 249.1,199.1C248.3,196.4 246.9,193.9 245.8,191.3C245.5,190.7 245.3,190.1 245.1,189.4C260.2,197.6 275.8,204.6 292.3,209.4C293.7,209.8 294.3,210.5 294.2,212C294.1,213.8 292.8,213.5 291.7,213.5C283.9,213.5 276.2,213.6 268.4,213.5C266.6,213.5 265.7,214 265.2,215.9C263.2,223 258.6,228.5 253.7,233.8C253.1,234.5 252.3,235.2 251.6,236Z" style="fill: #fff;"/>
        <path d="M183,202.7L183,242.3C181.5,241.9 180.3,241.6 179.1,241.2C172.7,238.8 167,235.5 163.2,229.5C162.1,227.8 162,226.5 163.5,224.9C169.6,218.1 175.5,211.1 181.5,204.2C181.8,203.7 182.3,203.3 183,202.7Z" style="fill: #fff;"/>
        <path d="M198.2,16.1L198.2,18.9C198.2,22 198.1,22.2 195,21.9C190.1,21.5 185.2,20.9 181,18.1C179,16.8 177.2,15 175.9,13C174.1,10.2 175.2,7.5 178.5,7C181.3,6.6 184.2,6.9 187,7.4C190.1,8 193.1,9.4 196.2,10.1C197.9,10.5 198.3,11.2 198.2,12.7C198.1,13.8 198.2,15 198.2,16.1Z" style="fill: #fff;"/>
        <path d="M245.2,189.4L245.1,189.5C245,189.5 245.1,189.5 245.2,189.4C245.1,189.4 245.2,189.4 245.2,189.4Z" style="fill: #fff;"/>
        <path d="M251.6,236L251.5,235.9L251.6,236Z" style="fill: #fff;"/>
    </g>
    <g>
        <path d="M136.5,311.5C136.5,319.3 136.4,320.5 137.3,322.1C138.2,323.5 140.6,323.6 143.6,323.9C144.2,324 144.4,324.1 144.4,324.9C144.4,325.8 144.2,325.9 143.6,325.9C140.2,325.7 136,325.6 132.7,325.6C129.5,325.6 125.5,325.7 122.3,325.9C121.8,325.9 121.7,325.7 121.7,324.9C121.7,324.1 121.9,323.9 122.3,323.9C125.2,323.6 127.2,323.6 128.1,322.1C129.2,320.3 129.1,316.8 129.1,311.5L129.1,283.4C129.1,275.9 129,274.9 128.1,273.2C127.3,271.8 125,271.7 121.9,271.4C121.3,271.3 121.3,271.2 121.3,270.4C121.3,269.4 121.4,269.1 121.9,269.1C125.2,269.3 129.4,269.6 132.6,269.6C135.8,269.6 139.9,269.4 143,269.1C143.6,269.1 143.9,269.3 143.9,270.4C143.9,271.2 143.7,271.3 143.1,271.4C140.3,271.7 138.2,271.7 137.2,273.2C136.2,275 136.3,278.6 136.3,283.4L136.3,294.4C141.6,294.6 146.3,294.6 151.3,294.6C156.2,294.6 160.8,294.6 165.9,294.4L165.9,283.4C165.9,275.9 165.8,274.8 165,273.2C164.2,271.8 161.8,271.7 158.8,271.4C158.2,271.3 158.1,271.2 158.1,270.4C158.1,269.4 158.3,269.1 158.8,269.1C162.1,269.3 166.4,269.6 169.7,269.6C172.9,269.6 176.8,269.4 180,269.1C180.7,269.1 180.9,269.3 180.9,270.3C180.9,271.2 180.7,271.3 180.1,271.3C177.2,271.6 175.2,271.6 174.3,273.1C173.3,274.9 173.3,278.6 173.3,283.3L173.3,311.4C173.3,319.2 173.3,320.4 174.3,322C175.2,323.4 177.5,323.5 180.6,323.8C181.2,323.9 181.2,324 181.2,324.8C181.2,325.6 181.1,325.8 180.6,325.8C177,325.6 172.9,325.5 169.7,325.5C166.5,325.5 162.3,325.7 159.2,325.8C158.6,325.8 158.5,325.6 158.5,324.8C158.5,324 158.7,323.8 159.2,323.8C162.1,323.5 164,323.5 164.9,322C165.9,320.2 165.9,316.7 165.9,311.4L165.9,297.8C160.8,297.5 156.2,297.5 151.3,297.5C146.3,297.5 141.6,297.5 136.3,297.8L136.3,311.5L136.5,311.5Z" style="fill: #fff;"/>
        <path d="M198.7,277.5L199,311.6C199.1,316.6 199.4,320.2 200.4,321.8C201.4,323.4 203.8,323.6 206.4,323.9C207,323.9 207,324.1 207,324.9C207,325.7 206.8,325.9 206.4,325.9C203.2,325.7 200.1,325.7 197.3,325.7C194.4,325.7 190.8,325.8 188.1,325.9C187.5,325.9 187.3,325.7 187.3,325C187.3,324.2 187.5,324 188,324C190.4,323.7 192.4,323.4 193.5,321.8C194.6,320.1 195,316.5 195.1,311.7L195.6,283.4C195.7,278.4 195.4,275.3 194.3,273.8C193.3,272.4 190.7,271.8 187.8,271.5C187.2,271.4 187,271.3 187,270.5C187,269.5 187.2,269.2 187.8,269.2C190.5,269.3 193.4,269.4 195.4,269.4C197.5,269.4 199.5,269.4 203.3,269.3C205,272.5 206.5,274.6 209.4,278.9L227.5,305.4C230.2,309.3 232.4,312.6 234.9,316.5L234.9,306.7L234.8,283.4C234.8,278.9 234.2,275.2 233.2,273.5C232.2,271.9 229.9,271.8 227.3,271.4C226.7,271.3 226.5,271.2 226.5,270.4C226.5,269.4 226.7,269.2 227.2,269.2C230.1,269.4 233.3,269.5 236.2,269.5C239.1,269.5 242.6,269.3 245.2,269.2C245.8,269.2 246,269.4 246,270.4C246,271.2 245.8,271.4 245.2,271.4C242.8,271.7 240.8,271.9 239.9,273.5C238.9,275.2 238.5,279 238.4,283.4L237.9,311.7C237.8,317 237.9,320.9 238.1,325.1C234.2,327.2 234.1,327.3 233.8,327.3C233.5,327.3 233.3,327.1 233.2,326.9C230.7,322.9 228.9,320.2 224.2,313.3L199.7,277.6L198.7,277.6L198.7,277.5Z" style="fill: #fff;"/>
        <path d="M301.9,279.4C303.2,276.2 304.4,273.1 305.5,269.3C308.2,269.5 310.3,269.5 312.8,269.5C315.3,269.5 318.8,269.3 321.4,269.1C322,269.1 322.2,269.3 322.2,270.3C322.2,271.1 322,271.3 321.4,271.3C318.4,271.6 316.6,271.6 315.5,273.2C314.4,275 314.4,278.5 314.5,283.3L314.8,311.4C315,319.2 315,320.2 316,321.9C316.9,323.4 319.1,323.5 322.1,323.8C322.7,323.9 322.9,324 322.9,324.8C322.9,325.6 322.7,325.8 322.1,325.8C318.7,325.6 314.3,325.5 311.2,325.5C308,325.5 304.1,325.6 300.9,325.8C300.5,325.8 300.3,325.6 300.3,324.8C300.3,324 300.5,323.8 300.9,323.8C303.8,323.5 305.8,323.5 306.7,321.9C307.7,320.2 307.7,316.7 307.7,311.4L307.5,277.5L306.6,277.5L294.7,305.3C291.1,313.7 288.9,318.9 286.5,324.9C286.3,325.5 286.2,325.9 285.2,325.9C284.4,325.9 284.3,325.6 284.1,324.9C281.6,318.7 279.5,313.6 276.6,306.8L264,277.5L263,277.5L262.8,311.4C262.8,316.1 263,320.1 264.1,321.7C265,323.2 267.6,323.4 270,323.8C270.7,323.9 270.8,324 270.8,324.8C270.8,325.6 270.6,325.8 270,325.8C267.1,325.6 264.1,325.5 261.2,325.5C258.3,325.5 254.9,325.6 252.2,325.8C251.6,325.8 251.5,325.6 251.5,324.8C251.5,324 251.7,323.8 252.2,323.8C254.3,323.5 256.6,323.3 257.5,321.7C258.7,320 259.1,316.4 259.2,311.5L259.8,283.4C260,278.3 260,275 258.9,273.3C257.8,271.8 255.3,271.7 252.6,271.4C252,271.3 251.9,271.2 251.9,270.4C251.9,269.4 252.2,269.2 252.6,269.2C255.6,269.4 259,269.6 261.3,269.6C263.8,269.6 265.7,269.6 268.8,269.4C269.8,272.6 270.8,275.4 272,278.4L282.9,304.4C284.6,308.2 285.8,311.1 287.3,315.1C289,311.3 289.9,308.6 291.7,304.5L301.9,279.4Z" style="fill: #fff;"/>
    </g>
    <g>
        <path d="M127.5,347.9C127.5,349.2 127.5,349.4 127.6,349.7C127.7,349.9 128.2,350 128.7,350C128.8,350 128.8,350 128.8,350.2C128.8,350.3 128.8,350.4 128.7,350.4C128.1,350.4 127.4,350.3 126.8,350.3C126.3,350.3 125.6,350.3 125,350.4C124.9,350.4 124.9,350.4 124.9,350.2C124.9,350 124.9,350 125,350C125.5,349.9 125.8,349.9 126,349.7C126.2,349.4 126.2,348.8 126.2,347.9L126.2,343C126.2,341.7 126.2,341.5 126,341.2C125.9,341 125.5,340.9 124.9,340.9C124.8,340.9 124.8,340.9 124.8,340.7C124.8,340.5 124.8,340.5 124.9,340.5C125.5,340.5 126.2,340.6 126.7,340.6C127.3,340.6 127.9,340.6 128.5,340.5C128.6,340.5 128.6,340.5 128.6,340.7C128.6,340.8 128.6,340.8 128.5,340.9C128,341 127.7,341 127.5,341.2C127.3,341.5 127.4,342.1 127.4,343L127.4,344.9L132.5,344.9L132.5,343C132.5,341.7 132.5,341.5 132.4,341.2C132.3,341 131.8,340.9 131.3,340.9C131.2,340.9 131.2,340.9 131.2,340.7C131.2,340.5 131.2,340.5 131.3,340.5C131.9,340.5 132.6,340.6 133.2,340.6C133.7,340.6 134.4,340.6 135,340.5C135.1,340.5 135.1,340.5 135.1,340.7C135.1,340.8 135.1,340.9 135,340.9C134.5,341 134.2,341 134,341.2C133.8,341.5 133.8,342.1 133.8,343L133.8,347.8C133.8,349.1 133.8,349.3 134,349.6C134.1,349.8 134.6,349.9 135.1,349.9C135.2,349.9 135.2,349.9 135.2,350.1C135.2,350.3 135.2,350.3 135.1,350.3C134.5,350.3 133.8,350.2 133.2,350.2C132.6,350.2 131.9,350.2 131.4,350.3C131.3,350.3 131.3,350.3 131.3,350.1C131.3,349.9 131.3,349.9 131.4,349.9C131.9,349.8 132.2,349.8 132.4,349.6C132.6,349.3 132.6,348.7 132.6,347.8L132.6,345.5C131.7,345.4 130.9,345.4 130.1,345.4C129.2,345.4 128.4,345.4 127.5,345.5L127.5,347.9Z" style="fill: #fff;"/>
        <path d="M141.7,346.6C141.2,346.6 140.7,346.5 140.1,346.5C139.5,346.5 139,346.5 138.4,346.6L137.9,348.1C137.6,348.9 137.6,349.3 137.7,349.6C137.8,349.9 138.3,349.9 138.8,350C138.9,350 138.9,350 138.9,350.2C138.9,350.3 138.9,350.4 138.8,350.4L135.7,350.4C135.6,350.4 135.6,350.4 135.6,350.2C135.6,350.1 135.6,350 135.7,350C136.1,349.9 136.3,349.8 136.5,349.6C136.8,349.3 137,348.8 137.3,348L138.9,343.7C139.6,341.9 139.7,341.5 139.9,340.8L140.8,340.4C140.9,340.4 140.9,340.4 140.9,340.5C141.2,341.3 141.4,342 142,343.8L143.5,348.1C143.8,348.9 144,349.3 144.2,349.6C144.4,349.9 144.7,349.9 145.1,349.9C145.2,349.9 145.2,349.9 145.2,350.1C145.2,350.2 145.2,350.3 145.1,350.3L141.5,350.3C141.4,350.3 141.4,350.3 141.4,350.1C141.4,350 141.4,349.9 141.5,349.9C141.9,349.9 142.4,349.8 142.5,349.6C142.6,349.3 142.5,348.9 142.2,348.2L141.7,346.6ZM140.7,343.8C140.4,342.9 140.2,342.4 140.1,341.9C139.9,342.4 139.7,342.9 139.4,343.7L138.6,346L141.5,346L140.7,343.8Z" style="fill: #fff;"/>
        <path d="M148.3,347.9C148.3,349.2 148.3,349.4 148.4,349.7C148.5,350 149,350 149.5,350C149.6,350 149.6,350 149.6,350.2C149.6,350.3 149.6,350.4 149.5,350.4C148.9,350.4 148.2,350.3 147.6,350.3C147.1,350.3 146.4,350.3 145.8,350.4C145.7,350.4 145.7,350.4 145.7,350.2C145.7,350.1 145.7,350 145.8,350C146.3,349.9 146.6,349.9 146.8,349.7C147,349.4 147,348.8 147,347.9L147,343C147,341.7 147,341.6 146.8,341.3C146.7,341 146.3,341 145.7,341C145.6,341 145.6,341 145.6,340.8C145.6,340.6 145.6,340.6 145.7,340.6C146.3,340.6 147,340.7 147.5,340.7C148.1,340.7 148.8,340.7 149.3,340.6C149.4,340.6 149.4,340.6 149.4,340.8C149.4,340.9 149.4,340.9 149.3,341C148.8,341.1 148.5,341.1 148.3,341.3C148.1,341.6 148.1,342.2 148.1,343L148.1,347.9L148.3,347.9Z" style="fill: #fff;"/>
        <path d="M153.3,347.8C153.3,349.1 153.3,349.3 153.4,349.6C153.6,349.9 153.9,349.9 154.4,349.9C154.5,349.9 154.5,349.9 154.5,350.1C154.5,350.2 154.5,350.3 154.4,350.3C153.8,350.3 153.2,350.2 152.6,350.2C152.1,350.2 151.4,350.2 150.8,350.3C150.7,350.3 150.7,350.3 150.7,350.1C150.7,350 150.7,349.9 150.8,349.9C151.3,349.8 151.6,349.8 151.8,349.6C152,349.3 152,348.7 152,347.8L152,343C152,341.7 152,341.6 151.9,341.3C151.8,341 151.3,341 150.8,341C150.7,341 150.7,341 150.7,340.8C150.7,340.6 150.7,340.6 150.8,340.6C151.4,340.6 152.1,340.7 152.6,340.7C153.1,340.7 153.9,340.6 154.8,340.6C157.3,340.6 158.3,341.7 158.3,343.1C158.3,344.1 157.6,345.1 156.1,345.5C156.6,346.5 157.3,347.7 158,348.8C158.3,349.3 158.5,349.7 158.8,349.8C159,349.9 159.3,349.9 159.6,350C159.7,350 159.7,350 159.7,350.2C159.7,350.3 159.7,350.4 159.6,350.4C159.1,350.4 158.7,350.3 158.3,350.3L157.3,350.3C157.2,350 157,349.6 156.8,349.3C156.1,348.1 155.5,346.9 154.8,345.7L153.2,345.7L153.2,347.8L153.3,347.8ZM153.3,345.2C153.6,345.2 153.9,345.3 154.3,345.3C156.2,345.3 156.9,344.3 156.9,343.2C156.9,341.9 156.2,341.1 154.5,341.1C154.1,341.1 153.6,341.1 153.4,341.4C153.2,341.7 153.2,342.4 153.2,343.1L153.2,345.2L153.3,345.2Z" style="fill: #fff;"/>
    </g>
    <g transform="matrix(1,0,0,1,160.88,350.71)">
        <text x="0px" y="0px" style="fill: #fff; font-family:'YuMin_36pKn-Medium', 'YuMincho +36p Kana', serif;font-weight:500;font-size:13.56px;">S<tspan x="7.444px " y="0px ">Y</tspan></text>
    </g>
    <g>
        <path d="M180.6,345.5C179.2,344.8 178.5,344.1 178.5,342.8C178.5,341.5 179.6,340.4 181.4,340.4C181.8,340.4 182.2,340.5 182.6,340.6C183,340.7 183.5,340.7 183.9,340.7C183.9,341.4 184,342.2 184,342.9C184,343 184,343 183.8,343C183.7,343 183.7,343 183.6,342.9C183.2,341.6 182.3,340.9 181.3,340.9C180.3,340.9 179.6,341.6 179.6,342.6C179.6,343.3 179.9,343.9 181.1,344.4L181.8,344.7C183.4,345.4 184.3,346.1 184.3,347.7C184.3,349.3 183.3,350.6 180.9,350.6C180.1,350.6 179.2,350.4 178.5,350.1C178.3,349.4 178.1,348.6 178.1,347.9C178.1,347.8 178.1,347.8 178.2,347.7C178.3,347.7 178.4,347.7 178.4,347.8C179,349.2 180,350.1 181.1,350.1C182.4,350.1 183.1,349.2 183.1,348.2C183.1,347.1 182.4,346.5 181.1,345.9L180.6,345.5Z" style="fill: #fff;"/>
        <path d="M189.3,343C189.3,341.8 189.3,341.6 189.2,341.3C189.1,341.1 188.7,341.1 188.3,341.1C187.7,341.1 187.1,341.2 186.7,341.5C186.3,341.8 186,342.4 185.8,342.9C185.8,343 185.7,343 185.6,343C185.5,343 185.5,342.9 185.5,342.8C185.6,342.1 185.7,341.3 185.7,340.6C187.2,340.7 188.6,340.7 190,340.7C191.4,340.7 192.8,340.7 194.3,340.6C194.4,341.3 194.4,342.2 194.5,342.8C194.5,342.9 194.5,342.9 194.4,343C194.2,343 194.2,343 194.2,342.9C194,342.4 193.7,341.8 193.3,341.5C192.9,341.2 192.4,341.1 191.7,341.1C191.4,341.1 191,341.1 190.8,341.4C190.6,341.7 190.6,342.3 190.6,343.1L190.6,347.9C190.6,349.2 190.6,349.4 190.7,349.7C190.8,350 191.3,350 191.8,350C191.9,350 191.9,350 191.9,350.2C191.9,350.3 191.9,350.4 191.8,350.4C191.2,350.4 190.5,350.3 189.9,350.3C189.3,350.3 188.6,350.3 188.1,350.4C188,350.4 188,350.4 188,350.2C188,350.1 188,350 188.1,350C188.5,349.9 188.9,349.9 189.1,349.7C189.3,349.4 189.2,348.8 189.2,347.9L189.2,343L189.3,343Z" style="fill: #fff;"/>
        <path d="M198,347.9C198,348.5 198,349.2 198.2,349.5C198.4,349.9 198.9,349.9 199.5,349.9C200.8,349.9 201.4,349.7 201.9,349.3C202.3,349 202.7,348.4 202.9,347.9C202.9,347.8 203,347.8 203.1,347.8C203.3,347.9 203.3,347.9 203.2,348C203.1,348.7 202.8,349.6 202.5,350.3C201.3,350.3 200.2,350.2 199.1,350.2C197.9,350.2 196.7,350.2 195.5,350.3C195.4,350.3 195.4,350.3 195.4,350.1C195.4,350 195.4,349.9 195.5,349.9C196,349.8 196.3,349.8 196.5,349.6C196.7,349.3 196.7,348.7 196.7,347.8L196.7,343C196.7,341.7 196.7,341.5 196.6,341.2C196.5,341 196.1,340.9 195.6,340.9C195.5,340.9 195.5,340.9 195.5,340.7C195.5,340.5 195.5,340.5 195.6,340.5C196.7,340.6 197.9,340.6 199,340.6C200.1,340.6 201.2,340.6 202.4,340.5C202.5,341.2 202.5,342 202.6,342.7C202.6,342.8 202.6,342.8 202.5,342.9C202.3,342.9 202.3,342.9 202.3,342.8C202.1,342.3 201.8,341.7 201.4,341.5C201,341.2 200.5,341.1 199.4,341.1C198.9,341.1 198.4,341.1 198.2,341.4C198,341.7 198.1,342.3 198.1,343L198.1,344.9L198.9,344.9C199.8,344.9 200.4,344.8 200.6,344.6C200.9,344.4 201,344 201,343.7C201,343.6 201,343.6 201.2,343.6C201.4,343.6 201.4,343.6 201.4,343.7L201.4,346.6C201.4,346.7 201.4,346.7 201.2,346.7C201.1,346.7 201.1,346.6 201,346.6C200.9,346.3 200.8,345.8 200.5,345.6C200.3,345.4 199.6,345.3 198.8,345.3L198,345.3L198,347.9Z" style="fill: #fff;"/>
        <path d="M212.8,342.4C213,341.8 213.2,341.3 213.4,340.7L214.6,340.7C215,340.7 215.6,340.7 216.1,340.6C216.2,340.6 216.2,340.6 216.2,340.8C216.2,340.9 216.2,341 216.1,341C215.6,341.1 215.3,341.1 215.1,341.3C214.9,341.6 214.9,342.2 214.9,343L215,347.8C215,349.1 215,349.3 215.2,349.6C215.3,349.9 215.7,349.9 216.2,349.9C216.3,349.9 216.3,349.9 216.3,350.1C216.3,350.2 216.3,350.3 216.2,350.3C215.6,350.3 214.9,350.2 214.3,350.2C213.7,350.2 213.1,350.2 212.5,350.3C212.4,350.3 212.4,350.3 212.4,350.1C212.4,350 212.4,349.9 212.5,349.9C213,349.8 213.3,349.8 213.5,349.6C213.7,349.3 213.7,348.7 213.7,347.8L213.7,342L213.6,342L211.6,346.8C211,348.2 210.6,349.1 210.2,350.2C210.2,350.3 210.1,350.4 210,350.4C209.9,350.4 209.9,350.3 209.8,350.2C209.4,349.1 209,348.3 208.5,347.1L206.3,342.1L206.1,342.1L206.1,347.9C206.1,348.7 206.1,349.4 206.3,349.7C206.4,350 206.9,350 207.3,350.1C207.4,350.1 207.4,350.1 207.4,350.3C207.4,350.4 207.4,350.5 207.3,350.5C206.8,350.5 206.3,350.4 205.8,350.4C205.3,350.4 204.7,350.4 204.3,350.5C204.2,350.5 204.2,350.5 204.2,350.3C204.2,350.2 204.2,350.1 204.3,350.1C204.7,350 205,350 205.2,349.7C205.4,349.4 205.5,348.8 205.5,347.9L205.6,343.1C205.6,342.2 205.6,341.7 205.5,341.4C205.3,341.1 204.9,341.1 204.4,341.1C204.3,341.1 204.3,341.1 204.3,340.9C204.3,340.7 204.4,340.7 204.4,340.7C204.9,340.7 205.5,340.8 205.9,340.8L207.2,340.8C207.4,341.3 207.5,341.8 207.8,342.3L209.7,346.7C210,347.4 210.2,347.9 210.5,348.5C210.8,347.8 210.9,347.4 211.3,346.7L212.8,342.4Z" style="fill: #fff;"/>
        <path d="M219.9,345.5C218.5,344.8 217.8,344.1 217.8,342.8C217.8,341.5 218.9,340.4 220.7,340.4C221.1,340.4 221.5,340.5 221.9,340.6C222.3,340.7 222.8,340.7 223.2,340.7C223.2,341.4 223.3,342.2 223.3,342.9C223.3,343 223.3,343 223.1,343C223,343 223,343 222.9,342.9C222.5,341.6 221.6,340.9 220.6,340.9C219.6,340.9 218.9,341.6 218.9,342.6C218.9,343.3 219.2,343.9 220.4,344.4L221.1,344.7C222.7,345.4 223.6,346.1 223.6,347.7C223.6,349.3 222.6,350.6 220.2,350.6C219.4,350.6 218.5,350.4 217.8,350.1C217.6,349.4 217.4,348.6 217.4,347.9C217.4,347.8 217.4,347.8 217.5,347.7C217.6,347.7 217.7,347.7 217.7,347.8C218.3,349.2 219.3,350.1 220.4,350.1C221.7,350.1 222.4,349.2 222.4,348.2C222.4,347.1 221.7,346.5 220.4,345.9L219.9,345.5Z" style="fill: #fff;"/>
        <path d="M232,345.5C230.6,344.8 229.9,344.1 229.9,342.8C229.9,341.5 231,340.4 232.8,340.4C233.2,340.4 233.6,340.5 234,340.6C234.4,340.7 234.9,340.7 235.3,340.7C235.3,341.4 235.4,342.2 235.4,342.9C235.4,343 235.4,343 235.2,343C235.1,343 235.1,343 235,342.9C234.6,341.6 233.7,340.9 232.7,340.9C231.7,340.9 231,341.6 231,342.6C231,343.3 231.3,343.9 232.5,344.4L233.2,344.7C234.8,345.4 235.7,346.1 235.7,347.7C235.7,349.3 234.7,350.6 232.3,350.6C231.5,350.6 230.6,350.4 229.9,350.1C229.7,349.4 229.5,348.6 229.5,347.9C229.5,347.8 229.5,347.8 229.6,347.7C229.7,347.7 229.8,347.7 229.8,347.8C230.4,349.2 231.4,350.1 232.5,350.1C233.8,350.1 234.5,349.2 234.5,348.2C234.5,347.1 233.8,346.5 232.5,345.9L232,345.5Z" style="fill: #fff;"/>
        <path d="M239.7,347.9C239.7,349.2 239.7,349.4 239.8,349.7C239.9,350 240.4,350 240.9,350C241,350 241,350 241,350.2C241,350.3 241,350.4 240.9,350.4C240.3,350.4 239.6,350.3 239.1,350.3C238.5,350.3 237.8,350.3 237.3,350.4C237.2,350.4 237.2,350.4 237.2,350.2C237.2,350.1 237.2,350 237.3,350C237.8,350 238.1,349.9 238.3,349.7C238.4,349.4 238.4,348.8 238.4,347.9L238.4,343C238.4,341.7 238.4,341.6 238.3,341.3C238.2,341 237.7,341 237.2,341C237.1,341 237.1,341 237.1,340.8C237.1,340.6 237.1,340.6 237.2,340.6C237.8,340.6 238.5,340.7 239.1,340.7C239.6,340.7 240.5,340.6 241.3,340.6C244,340.6 244.9,341.6 244.9,343.1C244.9,344.5 244,345.9 240.8,345.9C240.4,345.9 240.1,345.9 239.7,345.8L239.7,347.9ZM239.7,345.4C240,345.5 240.3,345.5 240.7,345.5C242.7,345.5 243.5,344.5 243.5,343.3C243.5,341.9 242.6,341.2 241,341.2C240.6,341.2 240.1,341.2 239.9,341.5C239.7,341.8 239.7,342.5 239.7,343.2L239.7,345.4Z" style="fill: #fff;"/>
        <path d="M248.7,347.9C248.7,348.5 248.7,349.2 248.9,349.5C249.1,349.9 249.6,349.9 250.2,349.9C251.5,349.9 252.1,349.7 252.6,349.3C253,349 253.4,348.4 253.6,347.9C253.6,347.8 253.7,347.8 253.8,347.8C254,347.9 254,347.9 253.9,348C253.8,348.7 253.5,349.6 253.2,350.3C252,350.3 250.9,350.2 249.8,350.2C248.6,350.2 247.4,350.2 246.2,350.3C246.1,350.3 246.1,350.3 246.1,350.1C246.1,350 246.1,349.9 246.2,349.9C246.7,349.8 247,349.8 247.2,349.6C247.4,349.3 247.4,348.7 247.4,347.8L247.4,343C247.4,341.7 247.4,341.5 247.3,341.2C247.2,341 246.8,340.9 246.3,340.9C246.2,340.9 246.2,340.9 246.2,340.7C246.2,340.5 246.2,340.5 246.3,340.5C247.4,340.6 248.6,340.6 249.7,340.6C250.8,340.6 251.9,340.6 253.1,340.5C253.2,341.2 253.2,342 253.3,342.7C253.3,342.8 253.3,342.8 253.2,342.9C253,342.9 253,342.9 253,342.8C252.8,342.3 252.5,341.7 252.1,341.5C251.7,341.2 251.2,341.1 250.1,341.1C249.6,341.1 249.1,341.1 248.9,341.4C248.7,341.7 248.8,342.3 248.8,343L248.8,344.9L249.6,344.9C250.5,344.9 251.1,344.8 251.3,344.6C251.6,344.4 251.7,344 251.7,343.7C251.7,343.6 251.7,343.6 251.9,343.6C252.1,343.6 252.1,343.6 252.1,343.7L252.1,346.6C252.1,346.7 252.1,346.7 251.9,346.7C251.8,346.7 251.8,346.6 251.7,346.6C251.6,346.3 251.5,345.8 251.2,345.6C251,345.4 250.3,345.3 249.5,345.3L248.7,345.3L248.7,347.9Z" style="fill: #fff;"/>
        <path d="M263.3,343C263.3,343.1 263.3,343.1 263.2,343.2C263.1,343.2 263,343.2 263,343.1C262.7,342.4 262.3,341.9 261.8,341.5C261.3,341.1 260.6,340.9 260,340.9C258,340.9 256.5,342.7 256.5,345.5C256.5,348 258,349.8 260.1,349.8C261.6,349.8 262.7,349.2 263.4,347.9C263.5,347.8 263.5,347.8 263.7,347.9C263.8,348 263.8,348 263.8,348.1C263,349.5 261.9,350.5 259.9,350.5C257.1,350.5 255,348.4 255,345.4C255,342.5 257.1,340.3 260,340.3C260.6,340.3 261.2,340.4 261.7,340.5C262.2,340.7 262.6,340.7 263.2,340.6C263.1,341.5 263.2,342.3 263.3,343Z" style="fill: #fff;"/>
        <path d="M267.2,347.9C267.2,349.2 267.2,349.4 267.3,349.7C267.4,350 267.9,350 268.4,350C268.5,350 268.5,350 268.5,350.2C268.5,350.3 268.5,350.4 268.4,350.4C267.8,350.4 267.1,350.3 266.5,350.3C266,350.3 265.3,350.3 264.7,350.4C264.6,350.4 264.6,350.4 264.6,350.2C264.6,350.1 264.6,350 264.7,350C265.2,349.9 265.5,349.9 265.7,349.7C265.9,349.4 265.9,348.8 265.9,347.9L265.9,343C265.9,341.7 265.9,341.6 265.7,341.3C265.6,341 265.2,341 264.6,341C264.5,341 264.5,341 264.5,340.8C264.5,340.6 264.5,340.6 264.6,340.6C265.2,340.6 265.9,340.7 266.4,340.7C267,340.7 267.7,340.7 268.2,340.6C268.3,340.6 268.3,340.6 268.3,340.8C268.3,340.9 268.3,340.9 268.2,341C267.7,341.1 267.4,341.1 267.2,341.3C267,341.6 267,342.2 267,343L267,347.9L267.2,347.9Z" style="fill: #fff;"/>
        <path d="M275,346.6C274.5,346.6 274,346.5 273.4,346.5C272.8,346.5 272.3,346.5 271.7,346.6L271.2,348.1C270.9,348.9 270.9,349.3 271,349.6C271.1,349.9 271.6,349.9 272.1,350C272.2,350 272.2,350 272.2,350.2C272.2,350.3 272.2,350.4 272.1,350.4L269,350.4C268.9,350.4 268.9,350.4 268.9,350.2C268.9,350.1 268.9,350 269,350C269.4,349.9 269.6,349.8 269.8,349.6C270.1,349.3 270.3,348.8 270.6,348L272.2,343.7C272.9,341.9 273,341.5 273.2,340.8L274.1,340.4C274.2,340.4 274.2,340.4 274.2,340.5C274.5,341.3 274.7,342 275.3,343.8L276.8,348.1C277.1,348.9 277.3,349.3 277.5,349.6C277.7,349.9 278,349.9 278.4,349.9C278.5,349.9 278.5,349.9 278.5,350.1C278.5,350.2 278.5,350.3 278.4,350.3L274.8,350.3C274.7,350.3 274.7,350.3 274.7,350.1C274.7,350 274.7,349.9 274.8,349.9C275.2,349.9 275.7,349.8 275.8,349.6C275.9,349.3 275.8,348.9 275.5,348.2L275,346.6ZM274.1,343.8C273.8,342.9 273.6,342.4 273.5,341.9C273.3,342.4 273.1,342.9 272.8,343.7L272,346L274.9,346L274.1,343.8Z" style="fill: #fff;"/>
        <path d="M281.6,347.9C281.6,348.5 281.6,349.2 281.8,349.5C282,349.9 282.5,349.9 283.1,349.9C284.5,349.9 285,349.6 285.5,349.3C285.9,349 286.2,348.4 286.5,347.9C286.5,347.8 286.6,347.8 286.7,347.8C286.8,347.9 286.9,347.9 286.8,348C286.6,348.7 286.4,349.6 286.1,350.3C284.9,350.3 283.8,350.2 282.7,350.2C281.6,350.2 280.3,350.2 279.2,350.3C279.1,350.3 279.1,350.3 279.1,350.1C279.1,350 279.1,349.9 279.2,349.9C279.7,349.8 280,349.8 280.2,349.6C280.4,349.3 280.4,348.7 280.4,347.8L280.4,343C280.4,341.7 280.4,341.5 280.3,341.3C280.2,341 279.8,341 279.3,341C279.2,341 279.2,341 279.2,340.8C279.2,340.6 279.2,340.6 279.3,340.6C279.9,340.6 280.5,340.7 281.1,340.7C281.6,340.7 282.3,340.7 282.9,340.6C283,340.6 283,340.6 283,340.8C283,340.9 283,340.9 282.9,341C282.4,341.1 282.1,341.1 281.9,341.3C281.7,341.6 281.7,342.2 281.7,343L281.7,347.9L281.6,347.9Z" style="fill: #fff;"/>
        <path d="M290.4,347.9C290.4,349.2 290.4,349.4 290.5,349.7C290.6,350 291.1,350 291.6,350C291.7,350 291.7,350 291.7,350.2C291.7,350.3 291.7,350.4 291.6,350.4C291,350.4 290.3,350.3 289.7,350.3C289.2,350.3 288.5,350.3 287.9,350.4C287.8,350.4 287.8,350.4 287.8,350.2C287.8,350.1 287.8,350 287.9,350C288.4,349.9 288.7,349.9 288.9,349.7C289.1,349.4 289.1,348.8 289.1,347.9L289.1,343C289.1,341.7 289.1,341.6 288.9,341.3C288.8,341 288.4,341 287.8,341C287.7,341 287.7,341 287.7,340.8C287.7,340.6 287.7,340.6 287.8,340.6C288.4,340.6 289.1,340.7 289.6,340.7C290.2,340.7 290.9,340.7 291.4,340.6C291.5,340.6 291.5,340.6 291.5,340.8C291.5,340.9 291.5,340.9 291.4,341C290.9,341.1 290.6,341.1 290.4,341.3C290.2,341.6 290.2,342.2 290.2,343L290.2,347.9L290.4,347.9Z" style="fill: #fff;"/>
        <path d="M295.3,345.5C293.9,344.8 293.2,344.1 293.2,342.8C293.2,341.5 294.3,340.4 296.1,340.4C296.5,340.4 296.9,340.5 297.3,340.6C297.7,340.7 298.2,340.7 298.6,340.7C298.6,341.4 298.7,342.2 298.7,342.9C298.7,343 298.7,343 298.5,343C298.4,343 298.4,343 298.3,342.9C297.9,341.6 297,340.9 296,340.9C295,340.9 294.3,341.6 294.3,342.6C294.3,343.3 294.6,343.9 295.8,344.4L296.5,344.7C298.1,345.4 299,346.1 299,347.7C299,349.3 298,350.6 295.6,350.6C294.8,350.6 293.9,350.4 293.2,350.1C293,349.4 292.8,348.6 292.8,347.9C292.8,347.8 292.8,347.8 292.9,347.7C293,347.7 293.1,347.7 293.1,347.8C293.7,349.2 294.7,350.1 295.8,350.1C297.1,350.1 297.8,349.2 297.8,348.2C297.8,347.1 297.1,346.5 295.8,345.9L295.3,345.5Z" style="fill: #fff;"/>
        <path d="M304,343C304,341.8 304,341.6 303.9,341.3C303.8,341.1 303.4,341.1 303,341.1C302.4,341.1 301.8,341.2 301.4,341.5C301,341.8 300.7,342.4 300.5,342.9C300.5,343 300.4,343 300.3,343C300.2,343 300.2,342.9 300.2,342.8C300.3,342.1 300.4,341.3 300.4,340.6C301.9,340.7 303.3,340.7 304.7,340.7C306.1,340.7 307.5,340.7 309,340.6C309.1,341.3 309.1,342.2 309.2,342.8C309.2,342.9 309.2,342.9 309.1,343C308.9,343 308.9,343 308.9,342.9C308.7,342.4 308.4,341.8 308,341.5C307.6,341.2 307.1,341.1 306.4,341.1C306.1,341.1 305.7,341.1 305.5,341.4C305.3,341.7 305.3,342.3 305.3,343.1L305.3,347.9C305.3,349.2 305.3,349.4 305.4,349.7C305.5,350 306,350 306.5,350C306.6,350 306.6,350 306.6,350.2C306.6,350.3 306.6,350.4 306.5,350.4C305.9,350.4 305.2,350.3 304.6,350.3C304,350.3 303.3,350.3 302.8,350.4C302.7,350.4 302.7,350.4 302.7,350.2C302.7,350.1 302.7,350 302.8,350C303.2,349.9 303.6,349.9 303.8,349.7C304,349.4 303.9,348.8 303.9,347.9L303.9,343L304,343Z" style="fill: #fff;"/>
        <path d="M312.6,345.5C311.2,344.8 310.5,344.1 310.5,342.8C310.5,341.5 311.6,340.4 313.4,340.4C313.8,340.4 314.2,340.5 314.6,340.6C315,340.7 315.5,340.7 315.9,340.7C315.9,341.4 316,342.2 316,342.9C316,343 316,343 315.8,343C315.7,343 315.7,343 315.6,342.9C315.2,341.6 314.3,340.9 313.3,340.9C312.3,340.9 311.6,341.6 311.6,342.6C311.6,343.3 311.9,343.9 313.1,344.4L313.8,344.7C315.4,345.4 316.3,346.1 316.3,347.7C316.3,349.3 315.3,350.6 312.9,350.6C312.1,350.6 311.2,350.4 310.5,350.1C310.3,349.4 310.1,348.6 310.1,347.9C310.1,347.8 310.1,347.8 310.2,347.7C310.3,347.7 310.4,347.7 310.4,347.8C311,349.2 312,350.1 313.1,350.1C314.4,350.1 315.1,349.2 315.1,348.2C315.1,347.1 314.4,346.5 313.1,345.9L312.6,345.5Z" style="fill: #fff;"/>
    </g>
    <g>
        <path d="M482.8,83.5C482.8,84.6 482.8,86 483.2,86.5C483.6,87.2 484.5,87.2 485.7,87.2C488.2,87.2 489.3,86.7 490.1,86.1C490.9,85.5 491.5,84.5 492,83.6C492.1,83.4 492.1,83.4 492.4,83.4C492.7,83.5 492.7,83.6 492.7,83.8C492.4,85.1 491.9,86.8 491.4,88.1C489.2,88 487,88 485,88C482.9,88 480.5,88 478.4,88.1C478.2,88.1 478.2,88 478.2,87.8C478.2,87.6 478.3,87.5 478.4,87.5C479.3,87.4 480,87.4 480.3,86.9C480.6,86.3 480.6,85.2 480.6,83.5L480.6,74.5C480.6,72.1 480.6,71.8 480.3,71.3C480,70.8 479.3,70.8 478.3,70.7C478.1,70.7 478.1,70.6 478.1,70.4C478.1,70.1 478.2,70 478.3,70C479.3,70.1 480.6,70.2 481.7,70.2C482.7,70.2 484,70.1 485.1,70C485.3,70 485.4,70.1 485.4,70.4C485.4,70.7 485.3,70.7 485.1,70.7C484.2,70.8 483.6,70.8 483.3,71.3C483,71.9 483,73 483,74.5L483,83.5L482.8,83.5Z" style="fill: #fff;"/>
        <path d="M499.1,83.5C499.1,86 499.1,86.4 499.4,86.9C499.7,87.4 500.4,87.4 501.4,87.5C501.6,87.5 501.6,87.6 501.6,87.8C501.6,88 501.5,88.1 501.3,88.1C500.2,88 498.9,88 497.8,88C496.8,88 495.5,88.1 494.5,88.1C494.3,88.1 494.3,88 494.3,87.8C494.3,87.6 494.4,87.5 494.5,87.5C495.4,87.4 496,87.4 496.3,86.9C496.7,86.3 496.6,85.2 496.6,83.5L496.6,74.5C496.6,72.1 496.6,71.8 496.3,71.3C496,70.8 495.3,70.8 494.3,70.7C494.1,70.7 494.1,70.6 494.1,70.4C494.1,70.1 494.2,70 494.3,70C495.4,70.1 496.7,70.2 497.7,70.2C498.8,70.2 500.1,70.1 501.1,70C501.3,70 501.3,70.1 501.3,70.4C501.3,70.7 501.2,70.7 501.1,70.7C500.2,70.8 499.6,70.8 499.2,71.3C498.9,71.9 498.9,73 498.9,74.5L498.9,83.5L499.1,83.5Z" style="fill: #fff;"/>
        <path d="M508.6,83.5C508.6,86 508.6,86.4 508.9,86.9C509.2,87.4 510,87.4 511,87.5C511.2,87.5 511.3,87.6 511.3,87.8C511.3,88.1 511.2,88.1 511,88.1C509.9,88 508.5,88 507.4,88C506.4,88 505.1,88 504.1,88.1C503.9,88.1 503.8,88 503.8,87.8C503.8,87.5 503.9,87.5 504,87.5C504.9,87.4 505.5,87.4 505.8,86.9C506.1,86.3 506.1,85.2 506.1,83.5L506.1,74.5C506.1,72.1 506.1,71.8 505.8,71.2C505.5,70.7 504.7,70.7 503.7,70.6C503.5,70.6 503.5,70.5 503.5,70.3C503.5,70 503.6,69.9 503.7,69.9C505.8,70 508.2,70 510.3,70C512.3,70 514.4,70 516.6,69.9C516.7,71.2 516.9,72.7 517.1,74C517.1,74.2 517.1,74.3 516.8,74.3C516.5,74.4 516.5,74.3 516.4,74.1C516.1,73.2 515.4,72 514.8,71.5C514,70.9 513,70.7 510.9,70.7C510,70.7 509.1,70.8 508.7,71.3C508.4,71.8 508.4,73 508.4,74.3L508.4,78L510,78C511.7,78 512.9,77.9 513.4,77.5C513.9,77.1 514.1,76.4 514.2,75.8C514.3,75.6 514.3,75.5 514.6,75.5C514.9,75.5 515,75.6 515,75.8C515,76.7 514.9,77.5 514.9,78.3C514.9,79.2 515,80.3 515,81.2C515,81.4 515,81.5 514.7,81.5C514.4,81.5 514.4,81.4 514.3,81.2C514.2,80.6 514,79.7 513.5,79.3C513,79 511.8,78.8 510.2,78.8C509.7,78.8 509,78.8 508.6,78.9L508.6,83.5Z" style="fill: #fff;"/>
        <path d="M523.8,83.5C523.8,84.6 523.8,86 524.2,86.5C524.6,87.2 525.6,87.2 526.7,87.2C529.2,87.2 530.3,86.8 531.1,86.2C531.9,85.6 532.5,84.5 533.1,83.6C533.2,83.4 533.2,83.4 533.5,83.4C533.8,83.5 533.8,83.6 533.8,83.8C533.5,85.1 533,86.8 532.5,88.1C530.3,88 528.2,88 526.1,88C523.9,88 521.6,88 519.4,88.1C519.2,88.1 519.2,88 519.2,87.8C519.2,87.6 519.3,87.5 519.4,87.5C520.3,87.4 520.9,87.4 521.2,86.9C521.5,86.3 521.5,85.2 521.5,83.5L521.5,74.5C521.5,72.1 521.5,71.8 521.2,71.2C520.9,70.7 520.2,70.7 519.2,70.6C519,70.6 519,70.5 519,70.3C519,70 519.1,69.9 519.2,69.9C521.3,70 523.6,70 525.6,70C527.6,70 529.7,70 531.9,69.9C532,71.2 532.2,72.7 532.3,74C532.3,74.2 532.3,74.3 532.1,74.3C531.8,74.4 531.7,74.3 531.7,74.1C531.4,73.2 530.7,72.1 530,71.6C529.3,71 528.2,70.8 526.2,70.8C525.2,70.8 524.4,70.9 524,71.4C523.7,71.9 523.7,73.1 523.7,74.4L523.7,78L525.3,78C526.9,78 528.1,77.9 528.6,77.5C529.2,77.1 529.3,76.5 529.4,75.8C529.4,75.6 529.5,75.6 529.7,75.6C530,75.6 530.1,75.7 530.1,75.8C530.1,76.7 530,77.5 530,78.4C530,79.3 530,80.4 530.1,81.3C530.1,81.5 530.1,81.6 529.7,81.6C529.5,81.6 529.4,81.5 529.4,81.3C529.3,80.7 529.1,79.8 528.5,79.4C528,79.1 526.8,78.9 525.3,78.9L523.7,78.9L523.7,83.5L523.8,83.5Z" style="fill: #fff;"/>
        <path d="M548.6,83.5C548.6,86 548.6,86.4 548.9,86.9C549.2,87.4 549.9,87.4 550.9,87.5C551.1,87.5 551.1,87.6 551.1,87.8C551.1,88 551,88.1 550.8,88.1C549.7,88 548.4,88 547.3,88C546.3,88 545,88.1 544,88.1C543.8,88.1 543.8,88 543.8,87.8C543.8,87.6 543.9,87.5 544,87.5C544.9,87.4 545.5,87.4 545.8,86.9C546.2,86.3 546.1,85.2 546.1,83.5L546.1,74.5C546.1,72.1 546.1,71.8 545.8,71.3C545.5,70.8 544.8,70.8 543.8,70.7C543.6,70.7 543.6,70.6 543.6,70.4C543.6,70.1 543.7,70 543.8,70C544.9,70.1 546.2,70.2 547.2,70.2C548.3,70.2 549.6,70.1 550.6,70C550.8,70 550.8,70.1 550.8,70.4C550.8,70.7 550.7,70.7 550.6,70.7C549.7,70.8 549.1,70.8 548.7,71.3C548.4,71.9 548.4,73 548.4,74.5L548.4,83.5L548.6,83.5Z" style="fill: #fff;"/>
        <path d="M557.9,79.1C555.4,77.8 554,76.6 554,74C554,71.6 556.1,69.5 559.4,69.5C560.2,69.5 560.9,69.6 561.6,69.9C562.4,70.1 563.3,70.2 564.1,70C564.1,71.3 564.3,72.7 564.4,74.1C564.4,74.2 564.3,74.3 564.1,74.4C563.9,74.4 563.8,74.3 563.8,74.2C563,71.8 561.4,70.4 559.5,70.4C557.5,70.4 556.3,71.7 556.3,73.5C556.3,74.7 556.9,75.9 559.1,76.9L560.4,77.5C563.4,78.9 565.1,80.2 565.1,83.1C565.1,86 563.2,88.5 558.7,88.5C557.2,88.5 555.6,88.1 554.1,87.6C553.7,86.2 553.4,84.8 553.3,83.5C553.3,83.4 553.3,83.2 553.6,83.2C553.9,83.1 554,83.2 554,83.4C555,86 557,87.7 559,87.7C561.4,87.7 562.8,86.1 562.8,84.1C562.8,82 561.6,81 559.1,79.7L557.9,79.1Z" style="fill: #fff;"/>
        <path d="M570.9,72.6L571,83.5C571,85.1 571.1,86.3 571.5,86.8C571.9,87.3 572.6,87.4 573.4,87.5C573.6,87.5 573.6,87.6 573.6,87.8C573.6,88 573.5,88.1 573.4,88.1C572.4,88 571.4,88 570.5,88C569.6,88 568.4,88 567.6,88.1C567.4,88.1 567.3,88 567.3,87.8C567.3,87.5 567.4,87.5 567.5,87.5C568.3,87.4 568.9,87.3 569.3,86.8C569.7,86.2 569.8,85.1 569.8,83.6L570,74.5C570,72.9 569.9,71.9 569.6,71.4C569.3,70.9 568.4,70.8 567.5,70.7C567.3,70.7 567.2,70.6 567.2,70.4C567.2,70.1 567.3,70 567.5,70C568.4,70 569.3,70.1 569.9,70.1L572.4,70.1C573,71.1 573.4,71.8 574.4,73.2L580.2,81.7C581.1,82.9 581.8,84 582.6,85.3L582.6,74.7C582.6,73.3 582.4,72.1 582.1,71.5C581.8,71 581,70.9 580.2,70.8C580,70.8 579.9,70.7 579.9,70.5C579.9,70.2 580,70.1 580.1,70.1C581,70.2 582.1,70.2 583,70.2C583.9,70.2 585.1,70.1 585.9,70.1C586.1,70.1 586.2,70.2 586.2,70.5C586.2,70.8 586.1,70.8 585.9,70.8C585.1,70.9 584.5,71 584.2,71.5C583.9,72.1 583.7,73.3 583.7,74.7L583.5,83.8C583.5,85.5 583.5,86.7 583.6,88.1C582.4,88.8 582.3,88.8 582.2,88.8C582.1,88.8 582,88.7 582,88.7C581.2,87.4 580.6,86.5 579.1,84.3L571.3,72.9L570.9,72.9L570.9,72.6Z" style="fill: #fff;"/>
        <path d="M588.6,70.8C588.5,70 588.9,69.5 589.8,69.5C590.7,69.5 591.1,70 591,70.8L590.2,76C590.2,76.2 590.1,76.3 589.9,76.3C589.6,76.3 589.5,76.2 589.5,76L588.6,70.8Z" style="fill: #fff;"/>
        <path d="M600.6,74.4C600.6,72.1 600.6,71.7 600.3,71.2C600,70.7 599.3,70.7 598.7,70.7C597.5,70.7 596.4,70.9 595.7,71.5C595,72 594.3,73.2 594,74.1C593.9,74.3 593.9,74.3 593.6,74.3C593.3,74.3 593.3,74.2 593.3,74C593.5,72.7 593.7,71.1 593.8,69.8C596.6,69.9 599.2,69.9 601.8,69.9C604.4,69.9 607.1,69.9 609.9,69.8C610,71.1 610.2,72.7 610.3,74C610.3,74.2 610.3,74.3 610,74.3C609.7,74.4 609.6,74.3 609.6,74.1C609.3,73.2 608.7,72 607.9,71.5C607.2,70.9 606.1,70.7 604.9,70.7C604.3,70.7 603.6,70.6 603.2,71.2C602.8,71.7 602.9,72.9 602.9,74.3L602.9,83.3C602.9,85.8 602.9,86.1 603.2,86.6C603.5,87.1 604.3,87.1 605.3,87.2C605.5,87.2 605.5,87.3 605.5,87.5C605.5,87.8 605.4,87.9 605.3,87.9C604.2,87.8 602.8,87.8 601.8,87.8C600.8,87.8 599.4,87.8 598.5,87.9C598.3,87.9 598.3,87.8 598.3,87.6C598.3,87.3 598.4,87.3 598.5,87.2C599.3,87.1 600.1,87.1 600.4,86.6C600.7,86 600.7,84.9 600.7,83.3L600.7,74.4L600.6,74.4Z" style="fill: #fff;"/>
        <path d="M625.3,83.5C625.3,86 625.3,86.4 625.6,86.8C625.9,87.3 626.7,87.3 627.7,87.4C627.9,87.4 628,87.5 628,87.7C628,87.9 627.9,88 627.7,88C626.6,87.9 625.3,87.9 624.3,87.9C623.2,87.9 621.9,87.9 620.9,88C620.7,88 620.7,88 620.7,87.7C620.7,87.4 620.8,87.4 620.9,87.4C621.8,87.3 622.5,87.3 622.8,86.8C623.1,86.2 623.1,85.1 623.1,83.5L623.1,74.5C623.1,72.1 623.1,71.8 622.8,71.3C622.5,70.8 621.6,70.8 620.7,70.7C620.5,70.7 620.5,70.6 620.5,70.4C620.5,70.1 620.6,70 620.7,70C621.8,70.1 623.2,70.1 624.2,70.1C625.2,70.1 626.7,69.9 628.4,69.9C633.4,69.9 635.1,71.9 635.1,74.7C635.1,77.4 633.4,79.9 627.4,79.9C626.7,79.9 626,79.9 625.4,79.8L625.4,83.5L625.3,83.5ZM625.3,78.8C625.9,78.9 626.5,79 627.2,79C631,79 632.4,77.1 632.4,74.8C632.4,72.2 630.7,70.8 627.8,70.8C627,70.8 626,70.9 625.7,71.3C625.3,71.8 625.3,73.1 625.3,74.5L625.3,78.8Z" style="fill: #fff;"/>
        <path d="M642.1,83.4C642.1,85.9 642.1,86.3 642.4,86.8C642.7,87.3 643.4,87.3 644.4,87.4C644.6,87.4 644.7,87.5 644.7,87.8C644.7,88 644.6,88.1 644.4,88.1C643.2,88 642,88 641,88C640,88 638.7,88.1 637.7,88.1C637.5,88.1 637.4,88 637.4,87.8C637.4,87.5 637.5,87.5 637.7,87.4C638.6,87.3 639.3,87.3 639.6,86.8C639.9,86.2 639.9,85.1 639.9,83.4L639.9,74.4C639.9,72 639.9,71.7 639.6,71.2C639.3,70.7 638.4,70.7 637.5,70.6C637.3,70.6 637.3,70.5 637.3,70.3C637.3,70 637.4,69.9 637.5,69.9C638.6,70 639.9,70 640.9,70C641.8,70 643.4,69.9 645.1,69.9C649.7,69.9 651.6,71.9 651.6,74.5C651.6,76.4 650.4,78.2 647.5,79C648.5,81 649.7,83 651,85.2C651.6,86.1 652,86.8 652.5,87.1C652.9,87.3 653.4,87.4 654,87.5C654.2,87.5 654.2,87.6 654.2,87.8C654.2,88.1 654.1,88.1 654,88.1C653.1,88 652.3,88 651.6,88L649.7,88C649.4,87.4 649.1,86.7 648.8,86C647.6,83.8 646.3,81.6 645.1,79.3C644.8,79.3 644.3,79.4 644,79.4C643.4,79.4 642.8,79.4 642.2,79.3L642.2,83.4L642.1,83.4ZM642.1,78.5C642.7,78.6 643.3,78.6 643.9,78.6C647.5,78.6 648.9,76.8 648.9,74.6C648.9,72.1 647.5,70.7 644.5,70.7C643.7,70.7 642.8,70.7 642.5,71.2C642.1,71.7 642.2,73 642.2,74.4L642.2,78.5L642.1,78.5Z" style="fill: #fff;"/>
        <path d="M659.9,83.5C659.9,84.6 659.9,86 660.3,86.5C660.7,87.2 661.7,87.2 662.8,87.2C665.3,87.2 666.4,86.8 667.2,86.2C668,85.6 668.6,84.5 669.2,83.6C669.3,83.4 669.3,83.4 669.6,83.4C669.9,83.5 669.9,83.6 669.9,83.8C669.6,85.1 669.1,86.8 668.6,88.1C666.4,88 664.3,88 662.2,88C660,88 657.7,88 655.5,88.1C655.3,88.1 655.3,88 655.3,87.8C655.3,87.6 655.4,87.5 655.5,87.5C656.4,87.4 657,87.4 657.3,86.9C657.6,86.3 657.6,85.2 657.6,83.5L657.6,74.5C657.6,72.1 657.6,71.8 657.3,71.2C657,70.7 656.3,70.7 655.3,70.6C655.1,70.6 655.1,70.5 655.1,70.3C655.1,70 655.2,69.9 655.3,69.9C657.4,70 659.7,70 661.7,70C663.7,70 665.8,70 668,69.9C668.1,71.2 668.3,72.7 668.4,74C668.4,74.2 668.4,74.3 668.2,74.3C667.9,74.4 667.8,74.3 667.8,74.1C667.5,73.2 666.8,72.1 666.1,71.6C665.4,71 664.3,70.8 662.3,70.8C661.3,70.8 660.5,70.9 660.1,71.4C659.8,71.9 659.8,73.1 659.8,74.4L659.8,78L661.4,78C663,78 664.2,77.9 664.7,77.5C665.3,77.1 665.4,76.5 665.5,75.8C665.5,75.6 665.6,75.6 665.8,75.6C666.1,75.6 666.2,75.7 666.2,75.8C666.2,76.7 666.1,77.5 666.1,78.4C666.1,79.3 666.1,80.4 666.2,81.3C666.2,81.5 666.2,81.6 665.8,81.6C665.6,81.6 665.5,81.5 665.5,81.3C665.4,80.7 665.2,79.8 664.6,79.4C664.1,79.1 662.9,78.9 661.4,78.9L659.8,78.9L659.8,83.5L659.9,83.5Z" style="fill: #fff;"/>
        <path d="M676.4,83.5C676.4,86 676.4,86.4 676.7,86.9C677,87.4 677.8,87.4 678.8,87.5C679,87.5 679.1,87.6 679.1,87.8C679.1,88.1 679,88.1 678.8,88.1C677.7,88 676.3,88 675.2,88C674.2,88 672.9,88 671.9,88.1C671.7,88.1 671.6,88 671.6,87.8C671.6,87.5 671.7,87.5 671.8,87.5C672.7,87.4 673.3,87.4 673.6,86.9C673.9,86.3 673.9,85.2 673.9,83.5L673.9,74.5C673.9,72.1 673.9,71.8 673.6,71.2C673.3,70.7 672.5,70.7 671.5,70.6C671.3,70.6 671.3,70.5 671.3,70.3C671.3,70 671.4,69.9 671.5,69.9C673.6,70 676,70 678.1,70C680.1,70 682.2,70 684.4,69.9C684.5,71.2 684.7,72.7 684.9,74C684.9,74.2 684.9,74.3 684.6,74.3C684.3,74.4 684.3,74.3 684.2,74.1C683.9,73.2 683.2,72 682.6,71.5C681.8,70.9 680.8,70.7 678.7,70.7C677.8,70.7 676.9,70.8 676.5,71.3C676.2,71.8 676.2,73 676.2,74.3L676.2,78L677.8,78C679.5,78 680.7,77.9 681.2,77.5C681.7,77.1 681.9,76.4 682,75.8C682.1,75.6 682.1,75.5 682.4,75.5C682.7,75.5 682.8,75.6 682.8,75.8C682.8,76.7 682.7,77.5 682.7,78.3C682.7,79.2 682.8,80.3 682.8,81.2C682.8,81.4 682.8,81.5 682.5,81.5C682.2,81.5 682.2,81.4 682.1,81.2C682,80.6 681.8,79.7 681.3,79.3C680.8,79 679.6,78.8 678,78.8C677.5,78.8 676.8,78.8 676.4,78.9L676.4,83.5Z" style="fill: #fff;"/>
        <path d="M691.6,83.5C691.6,84.6 691.6,86 692,86.5C692.4,87.2 693.4,87.2 694.5,87.2C697,87.2 698.1,86.8 698.9,86.2C699.7,85.6 700.3,84.5 700.9,83.6C701,83.4 701,83.4 701.3,83.4C701.6,83.5 701.6,83.6 701.6,83.8C701.3,85.1 700.8,86.8 700.3,88.1C698.1,88 696,88 693.9,88C691.7,88 689.4,88 687.2,88.1C687,88.1 687,88 687,87.8C687,87.6 687.1,87.5 687.2,87.5C688.1,87.4 688.7,87.4 689,86.9C689.3,86.3 689.3,85.2 689.3,83.5L689.3,74.5C689.3,72.1 689.3,71.8 689,71.2C688.7,70.7 688,70.7 687,70.6C686.8,70.6 686.8,70.5 686.8,70.3C686.8,70 686.9,69.9 687,69.9C689.1,70 691.4,70 693.4,70C695.4,70 697.5,70 699.7,69.9C699.8,71.2 700,72.7 700.1,74C700.1,74.2 700.1,74.3 699.9,74.3C699.6,74.4 699.5,74.3 699.5,74.1C699.2,73.2 698.5,72.1 697.8,71.6C697.1,71 696,70.8 694,70.8C693,70.8 692.2,70.9 691.8,71.4C691.5,71.9 691.5,73.1 691.5,74.4L691.5,78L693.1,78C694.7,78 695.9,77.9 696.4,77.5C697,77.1 697.1,76.5 697.2,75.8C697.2,75.6 697.3,75.6 697.5,75.6C697.8,75.6 697.9,75.7 697.9,75.8C697.9,76.7 697.8,77.5 697.8,78.4C697.8,79.3 697.8,80.4 697.9,81.3C697.9,81.5 697.9,81.6 697.5,81.6C697.3,81.6 697.2,81.5 697.2,81.3C697.1,80.7 696.9,79.8 696.3,79.4C695.8,79.1 694.6,78.9 693.1,78.9L691.5,78.9L691.5,83.5L691.6,83.5Z" style="fill: #fff;"/>
        <path d="M719,74.4C719,74.6 718.9,74.7 718.7,74.7C718.5,74.8 718.4,74.7 718.3,74.5C717.7,73.2 717.1,72.2 716.1,71.5C715.1,70.8 713.8,70.4 712.7,70.4C708.9,70.4 706.1,73.8 706.1,79C706.1,83.6 708.9,87.1 712.8,87.1C715.7,87.1 717.6,85.9 719,83.6C719.1,83.5 719.2,83.4 719.5,83.6C719.7,83.7 719.8,83.9 719.7,84.1C718.3,86.7 716.1,88.6 712.4,88.6C707.1,88.6 703.2,84.7 703.2,79.1C703.2,73.6 707.1,69.6 712.5,69.6C713.7,69.6 714.7,69.8 715.6,70C716.6,70.3 717.3,70.4 718.4,70.3C718.7,71.5 718.8,73 719,74.4Z" style="fill: #fff;"/>
        <path d="M728.2,74.4C728.2,72.1 728.2,71.7 727.9,71.2C727.6,70.7 726.9,70.7 726.3,70.7C725.1,70.7 724,70.9 723.3,71.5C722.6,72 721.9,73.2 721.6,74.1C721.5,74.3 721.5,74.3 721.2,74.3C720.9,74.3 720.9,74.2 720.9,74C721.1,72.7 721.3,71.1 721.4,69.8C724.2,69.9 726.8,69.9 729.4,69.9C732,69.9 734.7,69.9 737.5,69.8C737.6,71.1 737.8,72.7 737.9,74C737.9,74.2 737.9,74.3 737.6,74.3C737.3,74.4 737.2,74.3 737.2,74.1C736.9,73.2 736.3,72 735.5,71.5C734.8,70.9 733.7,70.7 732.5,70.7C731.9,70.7 731.2,70.6 730.8,71.2C730.4,71.7 730.5,72.9 730.5,74.3L730.5,83.3C730.5,85.8 730.5,86.1 730.8,86.6C731.1,87.1 731.9,87.1 732.9,87.2C733.1,87.2 733.1,87.3 733.1,87.5C733.1,87.8 733,87.9 732.9,87.9C731.8,87.8 730.4,87.8 729.4,87.8C728.4,87.8 727,87.8 726.1,87.9C725.9,87.9 725.9,87.8 725.9,87.6C725.9,87.3 726,87.3 726.1,87.2C726.9,87.1 727.7,87.1 728,86.6C728.3,86 728.3,84.9 728.3,83.3L728.3,74.4L728.2,74.4Z" style="fill: #fff;"/>
    </g>
    <g>
        <path d="M552.5,116.1C556.1,116.5 558.2,118.1 558.2,120.7C558.2,123.2 556.5,125.8 550.9,125.8C549.5,125.8 547.7,125.6 546.5,125.6C545.5,125.6 544.3,125.6 543.4,125.7C543.2,125.7 543.2,125.6 543.2,125.4C543.2,125.2 543.3,125.1 543.4,125.1C544.3,125 545,125 545.3,124.5C545.6,123.9 545.6,122.8 545.6,121.2L545.6,112.2C545.6,109.8 545.6,109.5 545.3,109C545,108.5 544.2,108.5 543.3,108.4C543.1,108.4 543.1,108.3 543.1,108.1C543.1,107.8 543.2,107.7 543.3,107.7C544.4,107.8 545.5,107.8 546.5,107.8C547.6,107.8 549.3,107.6 550.7,107.6C555.7,107.6 557.2,109.3 557.2,111.8C557.2,113.6 556.2,115.2 552.6,116.1L552.5,116.1ZM547.8,115.7L549,115.7C553.3,115.7 554.5,113.9 554.5,111.8C554.5,109.5 553,108.3 550.3,108.3C549.4,108.3 548.5,108.3 548.1,108.9C547.8,109.4 547.8,110.5 547.8,112.1L547.8,115.7ZM547.8,121C547.8,122.4 547.8,123.5 548.2,124.1C548.6,124.7 549.6,124.8 550.8,124.8C554.6,124.8 555.6,122.4 555.6,120.6C555.6,119 555.1,116.5 549.5,116.5L547.9,116.5L547.9,121L547.8,121Z" style="fill: #fff;"/>
        <path d="M575.6,112C575.6,110.6 575.5,109.4 575.2,108.9C574.9,108.4 574.1,108.3 573.2,108.2C573,108.2 573,108.1 573,107.9C573,107.6 573,107.5 573.2,107.5C574.2,107.6 575.3,107.6 576.2,107.6C577.1,107.6 578.1,107.5 579.1,107.5C579.3,107.5 579.3,107.6 579.3,107.9C579.3,108.2 579.2,108.2 579.1,108.2C578.3,108.3 577.7,108.4 577.3,108.9C576.9,109.5 576.8,110.6 576.8,112L576.8,115.1C576.8,116.7 576.7,118.3 576.7,119.7C576.7,121.7 576,123.3 574.8,124.3C573.6,125.3 572.1,125.9 570.1,125.9C567.5,125.9 565.7,125.1 564.4,123.9C563.4,122.9 562.9,121.7 562.9,120C562.9,118.5 563,116.7 563,115.1L563,112C563,109.6 563,109.3 562.7,108.8C562.4,108.3 561.7,108.3 560.7,108.2C560.5,108.2 560.5,108.1 560.5,107.9C560.5,107.6 560.6,107.5 560.7,107.5C561.7,107.6 563.1,107.6 564.1,107.6C565.2,107.6 566.5,107.5 567.5,107.5C567.7,107.5 567.7,107.6 567.7,107.9C567.7,108.2 567.6,108.2 567.5,108.2C566.6,108.3 565.9,108.3 565.6,108.8C565.3,109.4 565.3,110.5 565.3,112L565.3,118.7C565.3,120.9 565.4,122.3 566.5,123.3C567.5,124.3 569,124.7 570.3,124.7C572,124.7 573.4,124.3 574.4,123.3C575.3,122.5 575.7,121.3 575.7,119.4L575.7,115.2L575.6,112Z" style="fill: #fff;"/>
        <path d="M588,112C588,109.7 588,109.3 587.7,108.8C587.4,108.3 586.7,108.3 586.1,108.3C584.9,108.3 583.8,108.5 583.1,109.1C582.4,109.6 581.7,110.8 581.4,111.7C581.3,111.9 581.3,111.9 581,111.9C580.7,111.9 580.7,111.8 580.7,111.6C580.9,110.3 581.1,108.7 581.2,107.4C584,107.5 586.6,107.5 589.2,107.5C591.8,107.5 594.5,107.5 597.3,107.4C597.4,108.7 597.6,110.3 597.7,111.6C597.7,111.8 597.7,111.9 597.4,111.9C597.1,112 597,111.9 597,111.7C596.7,110.8 596.1,109.6 595.3,109.1C594.6,108.5 593.5,108.3 592.3,108.3C591.7,108.3 591,108.2 590.6,108.8C590.2,109.3 590.3,110.5 590.3,111.9L590.3,120.9C590.3,123.4 590.3,123.7 590.6,124.2C590.9,124.7 591.7,124.7 592.7,124.8C592.9,124.8 592.9,124.9 592.9,125.1C592.9,125.4 592.8,125.5 592.7,125.5C591.6,125.4 590.2,125.4 589.2,125.4C588.2,125.4 586.8,125.4 585.9,125.5C585.7,125.5 585.7,125.4 585.7,125.2C585.7,124.9 585.8,124.9 585.9,124.8C586.7,124.7 587.5,124.7 587.8,124.2C588.1,123.6 588.1,122.5 588.1,120.9L588.1,112L588,112Z" style="fill: #fff;"/>
        <path d="M612.6,121C612.6,123.5 612.6,123.9 612.9,124.4C613.2,124.9 614,124.9 614.9,125C615.1,125 615.2,125.1 615.2,125.3C615.2,125.6 615.1,125.6 614.9,125.6C613.8,125.5 612.5,125.5 611.4,125.5C610.4,125.5 609.1,125.5 608.1,125.6C607.9,125.6 607.9,125.5 607.9,125.3C607.9,125.1 608,125 608.1,125C609,124.9 609.7,124.9 610,124.4C610.4,123.8 610.3,122.7 610.3,121L610.3,112C610.3,109.6 610.3,109.3 610,108.7C609.7,108.2 609,108.2 608,108.1C607.8,108.1 607.8,108 607.8,107.8C607.8,107.5 607.8,107.4 608,107.4C609.1,107.5 610.4,107.6 611.4,107.6C612.4,107.6 613.7,107.5 614.7,107.4C614.9,107.4 615,107.5 615,107.8C615,108.1 614.9,108.1 614.7,108.1C613.8,108.2 613.1,108.2 612.8,108.7C612.5,109.3 612.5,110.4 612.5,112L612.5,115.5C614.2,115.6 615.7,115.6 617.3,115.6C618.9,115.6 620.3,115.6 622,115.5L622,112C622,109.6 622,109.3 621.7,108.7C621.4,108.2 620.7,108.2 619.7,108.1C619.5,108.1 619.5,108 619.5,107.8C619.5,107.5 619.6,107.4 619.7,107.4C620.8,107.5 622.1,107.6 623.2,107.6C624.2,107.6 625.5,107.5 626.5,107.4C626.7,107.4 626.8,107.5 626.8,107.8C626.8,108.1 626.7,108.1 626.5,108.1C625.6,108.2 624.9,108.2 624.6,108.7C624.3,109.3 624.3,110.5 624.3,112L624.3,121C624.3,123.5 624.3,123.9 624.6,124.4C624.9,124.9 625.6,124.9 626.6,125C626.8,125 626.8,125.1 626.8,125.3C626.8,125.5 626.8,125.6 626.6,125.6C625.5,125.5 624.1,125.5 623.1,125.5C622.1,125.5 620.7,125.6 619.7,125.6C619.5,125.6 619.5,125.5 619.5,125.3C619.5,125.1 619.6,125 619.7,125C620.6,124.9 621.2,124.9 621.5,124.4C621.8,123.8 621.8,122.7 621.8,121L621.8,116.6C620.2,116.5 618.7,116.5 617.1,116.5C615.5,116.5 614,116.5 612.3,116.6L612.3,121L612.6,121Z" style="fill: #fff;"/>
        <path d="M639.2,118.6C638.3,118.5 637.2,118.5 636.3,118.5C635.3,118.5 634.2,118.6 633.1,118.6L632.1,121.4C631.6,122.8 631.5,123.7 631.7,124.3C631.9,124.8 632.8,124.9 633.7,125C633.9,125 633.9,125.1 633.9,125.3C633.9,125.6 633.8,125.6 633.6,125.6C632.7,125.5 631.4,125.5 630.5,125.5C629.6,125.5 628.7,125.5 627.9,125.6C627.7,125.6 627.6,125.5 627.6,125.3C627.6,125 627.7,125 627.9,125C628.6,124.9 629,124.7 629.3,124.3C629.8,123.8 630.2,122.8 630.8,121.3L633.8,113.3C635,109.9 635.3,109.2 635.7,107.9L637.3,107.1C637.4,107.1 637.5,107.1 637.6,107.3C638.1,108.9 638.5,110.1 639.6,113.4L642.5,121.5C643,122.9 643.4,123.8 643.7,124.3C644.1,124.8 644.6,124.9 645.5,124.9C645.7,124.9 645.8,125 645.8,125.2C645.8,125.5 645.7,125.5 645.5,125.5C644.5,125.4 643.1,125.4 642.1,125.4C641.1,125.4 639.8,125.4 638.8,125.5C638.6,125.5 638.6,125.4 638.6,125.2C638.6,124.9 638.7,124.9 638.8,124.9C639.6,124.8 640.5,124.8 640.6,124.3C640.8,123.7 640.6,123 640.1,121.7L639.2,118.6ZM637.4,113.4C636.8,111.7 636.5,110.9 636.2,109.9C635.9,110.8 635.5,111.8 635,113.4L633.5,117.6C634.4,117.7 635.4,117.7 636.3,117.7C637.1,117.7 638.1,117.7 638.9,117.6L637.4,113.4Z" style="fill: #fff;"/>
        <path d="M651.5,121C651.5,123.5 651.5,123.9 651.8,124.4C652.1,124.9 652.8,124.9 653.8,125C654,125 654,125.1 654,125.3C654,125.5 653.9,125.6 653.7,125.6C652.6,125.5 651.3,125.5 650.2,125.5C649.2,125.5 647.9,125.6 646.9,125.6C646.7,125.6 646.7,125.5 646.7,125.3C646.7,125.1 646.8,125 646.9,125C647.8,124.9 648.4,124.9 648.7,124.4C649.1,123.8 649,122.7 649,121L649,112C649,109.6 649,109.3 648.7,108.8C648.4,108.3 647.7,108.3 646.7,108.2C646.5,108.2 646.5,108.1 646.5,107.9C646.5,107.6 646.6,107.5 646.7,107.5C647.8,107.6 649.1,107.7 650.1,107.7C651.2,107.7 652.5,107.6 653.5,107.5C653.7,107.5 653.7,107.6 653.7,107.9C653.7,108.2 653.6,108.2 653.5,108.2C652.6,108.3 652,108.3 651.6,108.8C651.3,109.4 651.3,110.5 651.3,112L651.3,121L651.5,121Z" style="fill: #fff;"/>
        <path d="M660.9,121C660.9,123.5 660.9,123.9 661.2,124.4C661.5,124.9 662.2,124.9 663.2,125C663.4,125 663.5,125.1 663.5,125.4C663.5,125.6 663.4,125.7 663.2,125.7C662.1,125.6 660.9,125.6 659.8,125.6C658.8,125.6 657.5,125.7 656.5,125.7C656.3,125.7 656.2,125.6 656.2,125.4C656.2,125.1 656.3,125.1 656.5,125C657.4,124.9 658.1,124.9 658.4,124.4C658.7,123.8 658.7,122.7 658.7,121L658.7,112C658.7,109.6 658.7,109.3 658.4,108.8C658.1,108.3 657.2,108.3 656.3,108.2C656.1,108.2 656.1,108.1 656.1,107.9C656.1,107.6 656.2,107.5 656.3,107.5C657.4,107.6 658.7,107.6 659.7,107.6C660.6,107.6 662.2,107.5 663.9,107.5C668.5,107.5 670.4,109.5 670.4,112.1C670.4,114 669.2,115.8 666.3,116.6C667.3,118.6 668.5,120.6 669.8,122.8C670.4,123.7 670.8,124.4 671.3,124.7C671.7,124.9 672.2,125 672.8,125.1C673,125.1 673,125.2 673,125.4C673,125.7 672.9,125.7 672.8,125.7C671.9,125.6 671.1,125.6 670.4,125.6L668.5,125.6C668.2,125 667.9,124.3 667.6,123.6C666.4,121.4 665.1,119.2 663.9,116.9C663.6,116.9 663.1,117 662.8,117C662.2,117 661.6,117 661,116.9L661,121L660.9,121ZM660.9,116.1C661.5,116.2 662.1,116.2 662.7,116.2C666.3,116.2 667.7,114.4 667.7,112.2C667.7,109.7 666.3,108.3 663.3,108.3C662.5,108.3 661.6,108.3 661.3,108.8C660.9,109.3 661,110.6 661,112L661,116.1L660.9,116.1Z" style="fill: #fff;"/>
        <path d="M698,111.9C698,112.1 697.9,112.2 697.7,112.2C697.5,112.3 697.4,112.2 697.3,112C696.7,110.7 696.1,109.7 695.1,109C694.1,108.3 692.8,107.9 691.7,107.9C687.9,107.9 685.1,111.3 685.1,116.5C685.1,121.1 687.9,124.6 691.8,124.6C694.7,124.6 696.6,123.4 698,121.1C698.1,121 698.2,120.9 698.5,121.1C698.7,121.2 698.8,121.4 698.7,121.6C697.3,124.2 695.1,126.1 691.4,126.1C686.1,126.1 682.2,122.2 682.2,116.6C682.2,111.1 686.1,107.1 691.5,107.1C692.7,107.1 693.7,107.3 694.6,107.5C695.6,107.8 696.3,107.9 697.4,107.8C697.7,109 697.9,110.6 698,111.9Z" style="fill: #fff;"/>
        <path d="M710.6,118.6C709.7,118.5 708.6,118.5 707.7,118.5C706.7,118.5 705.6,118.6 704.5,118.6L703.5,121.4C703,122.8 702.9,123.7 703.1,124.3C703.3,124.8 704.2,124.9 705.1,125C705.3,125 705.3,125.1 705.3,125.3C705.3,125.6 705.2,125.6 705,125.6C704.1,125.5 702.8,125.5 701.9,125.5C701,125.5 700.1,125.5 699.3,125.6C699.1,125.6 699,125.5 699,125.3C699,125 699.1,125 699.3,125C700,124.9 700.4,124.7 700.7,124.3C701.2,123.8 701.6,122.8 702.2,121.3L705.2,113.3C706.4,109.9 706.7,109.2 707.1,107.9L708.7,107.1C708.8,107.1 708.9,107.1 709,107.3C709.5,108.9 709.9,110.1 711,113.4L713.9,121.5C714.4,122.9 714.8,123.8 715.1,124.3C715.5,124.8 716,124.9 716.9,124.9C717.1,124.9 717.2,125 717.2,125.2C717.2,125.5 717.1,125.5 716.9,125.5C715.9,125.4 714.5,125.4 713.5,125.4C712.5,125.4 711.2,125.4 710.2,125.5C710,125.5 710,125.4 710,125.2C710,124.9 710.1,124.9 710.2,124.9C711,124.8 711.9,124.8 712,124.3C712.2,123.7 712,123 711.5,121.7L710.6,118.6ZM708.8,113.4C708.2,111.7 707.9,110.9 707.6,109.9C707.3,110.8 706.9,111.8 706.4,113.4L704.9,117.6C705.8,117.7 706.8,117.7 707.7,117.7C708.5,117.7 709.5,117.7 710.3,117.6L708.8,113.4Z" style="fill: #fff;"/>
        <path d="M721.6,110.1L721.7,121C721.7,122.6 721.8,123.8 722.2,124.3C722.6,124.8 723.3,124.9 724.1,125C724.3,125 724.3,125.1 724.3,125.3C724.3,125.5 724.2,125.6 724.1,125.6C723.1,125.5 722.1,125.5 721.2,125.5C720.3,125.5 719.1,125.5 718.3,125.6C718.1,125.6 718,125.5 718,125.3C718,125 718.1,125 718.2,125C719,124.9 719.6,124.8 720,124.3C720.4,123.7 720.5,122.6 720.5,121.1L720.7,112C720.7,110.4 720.6,109.4 720.3,108.9C720,108.4 719.1,108.3 718.2,108.2C718,108.2 717.9,108.1 717.9,107.9C717.9,107.6 718,107.5 718.2,107.5C719.1,107.5 720,107.6 720.6,107.6L723.1,107.6C723.7,108.6 724.1,109.3 725.1,110.7L730.9,119.2C731.8,120.4 732.5,121.5 733.3,122.8L733.3,112.2C733.3,110.8 733.1,109.6 732.8,109C732.5,108.5 731.7,108.4 730.9,108.3C730.7,108.3 730.6,108.2 730.6,108C730.6,107.7 730.7,107.6 730.8,107.6C731.7,107.7 732.8,107.7 733.7,107.7C734.6,107.7 735.8,107.6 736.6,107.6C736.8,107.6 736.9,107.7 736.9,108C736.9,108.3 736.8,108.3 736.6,108.3C735.8,108.4 735.2,108.5 734.9,109C734.6,109.6 734.4,110.8 734.4,112.2L734.2,121.3C734.2,123 734.2,124.2 734.3,125.6C733.1,126.3 733,126.3 732.9,126.3C732.8,126.3 732.7,126.2 732.7,126.2C731.9,124.9 731.3,124 729.8,121.8L722,110.4L721.6,110.4L721.6,110.1Z" style="fill: #fff;"/>
        <path d="M756.6,116.1C760.2,116.5 762.3,118.1 762.3,120.7C762.3,123.2 760.6,125.8 755,125.8C753.6,125.8 751.8,125.6 750.6,125.6C749.6,125.6 748.4,125.6 747.5,125.7C747.3,125.7 747.3,125.6 747.3,125.4C747.3,125.2 747.4,125.1 747.5,125.1C748.4,125 749.1,125 749.4,124.5C749.7,123.9 749.7,122.8 749.7,121.2L749.7,112.2C749.7,109.8 749.7,109.5 749.4,109C749.1,108.5 748.3,108.5 747.4,108.4C747.2,108.4 747.2,108.3 747.2,108.1C747.2,107.8 747.3,107.7 747.4,107.7C748.5,107.8 749.6,107.8 750.6,107.8C751.7,107.8 753.4,107.6 754.8,107.6C759.8,107.6 761.3,109.3 761.3,111.8C761.3,113.6 760.3,115.2 756.7,116.1L756.6,116.1ZM751.9,115.7L753.1,115.7C757.4,115.7 758.6,113.9 758.6,111.8C758.6,109.5 757.1,108.3 754.4,108.3C753.5,108.3 752.6,108.3 752.2,108.9C751.9,109.4 751.9,110.5 751.9,112.1L751.9,115.7ZM751.9,121C751.9,122.4 751.9,123.5 752.3,124.1C752.7,124.7 753.7,124.8 754.9,124.8C758.7,124.8 759.7,122.4 759.7,120.6C759.7,119 759.2,116.5 753.6,116.5L752,116.5L752,121L751.9,121Z" style="fill: #fff;"/>
        <path d="M769.5,121C769.5,122.1 769.5,123.5 769.9,124C770.3,124.7 771.3,124.7 772.4,124.7C774.9,124.7 776,124.3 776.8,123.7C777.6,123.1 778.2,122 778.8,121.1C778.9,120.9 778.9,120.9 779.2,120.9C779.5,121 779.5,121.1 779.5,121.3C779.2,122.6 778.7,124.3 778.2,125.6C776,125.5 773.9,125.5 771.8,125.5C769.6,125.5 767.3,125.5 765.1,125.6C764.9,125.6 764.9,125.5 764.9,125.3C764.9,125.1 765,125 765.1,125C766,124.9 766.6,124.9 766.9,124.4C767.2,123.8 767.2,122.7 767.2,121L767.2,112C767.2,109.6 767.2,109.3 766.9,108.7C766.6,108.2 765.9,108.2 764.9,108.1C764.7,108.1 764.7,108 764.7,107.8C764.7,107.5 764.8,107.4 764.9,107.4C767,107.5 769.3,107.5 771.3,107.5C773.3,107.5 775.4,107.5 777.6,107.4C777.7,108.7 777.9,110.2 778,111.5C778,111.7 778,111.8 777.8,111.8C777.5,111.9 777.4,111.8 777.4,111.6C777.1,110.7 776.4,109.6 775.7,109.1C775,108.5 773.9,108.3 771.9,108.3C770.9,108.3 770.1,108.4 769.7,108.9C769.4,109.4 769.4,110.6 769.4,111.9L769.4,115.5L771,115.5C772.6,115.5 773.8,115.4 774.3,115C774.9,114.6 775,114 775.1,113.3C775.1,113.1 775.2,113.1 775.4,113.1C775.7,113.1 775.8,113.2 775.8,113.3C775.8,114.2 775.7,115 775.7,115.9C775.7,116.8 775.7,117.9 775.8,118.8C775.8,119 775.8,119.1 775.4,119.1C775.2,119.1 775.1,119 775.1,118.8C775,118.2 774.8,117.3 774.2,116.9C773.7,116.6 772.5,116.4 771,116.4L769.4,116.4L769.4,121L769.5,121Z" style="fill: #fff;"/>
        <path d="M793.4,124.5C793.4,125.3 792.7,126 791.9,126C791,126 790.3,125.3 790.3,124.5C790.3,123.6 791,122.9 791.9,122.9C792.6,122.9 793.4,123.6 793.4,124.5Z" style="fill: #fff;"/>
        <path d="M800,124.5C800,125.3 799.3,126 798.5,126C797.6,126 796.9,125.3 796.9,124.5C796.9,123.6 797.6,122.9 798.5,122.9C799.3,122.9 800,123.6 800,124.5Z" style="fill: #fff;"/>
        <path d="M806.6,124.5C806.6,125.3 805.9,126 805.1,126C804.2,126 803.5,125.3 803.5,124.5C803.5,123.6 804.2,122.9 805.1,122.9C805.9,122.9 806.6,123.6 806.6,124.5Z" style="fill: #fff;"/>
    </g>
</svg>
