<?xml version="1.0" encoding="UTF-8"?>
<svg id="Layer_2" data-name="Layer 2" xmlns="http://www.w3.org/2000/svg" viewBox="0 0 466 714">
  <defs>
    <style>
      .cls-1 {
        font-family: 'YuMin_36pKn-Extrabold-83pv-RKSJ-H', 'YuMincho +36p Kana';
        font-size: 173.14px;
        font-weight: 700;
      }
    </style>
  </defs>
  <g id="Layer_1-2" data-name="Layer 1-2">
    <path d="M300.29,347.6c-8.48,11.72-16.31,22.87-24.48,33.78-12.27,16.38-24.74,32.62-37.19,48.87-9.12,11.91-19.42,15.3-33.92,11.49-16.05-4.22-26.66-15.19-35.33-28.47-15.45-23.66-25.75-49.71-33.66-76.61-5.2-17.68-8.5-35.92-12.76-53.88-.39-1.66-1.24-3.54-2.48-4.64-21.57-19.11-30.89-44.05-34.42-71.77-.44-3.42-.57-6.88-.88-10.74,1.57,.1,2.55-.04,3.39,.25,35.16,12.2,71.47,13.8,108.13,11.42,47.18-3.06,92.78-13.97,137.59-28.55,1.87-.61,3.75-1.18,5.57-1.75,6.98,14.27-3.5,57.91-17.57,71.39-.72-5.64-1.36-10.59-1.97-15.55-.16-1.32-.22-2.66-.38-3.98-.76-6.37-2.42-7.72-8.44-5.51-6.39,2.34-12.6,5.25-18.75,8.19-13.64,6.5-27.5,12.14-43.03,11.03-3.77-.27-7.46-1.53-11.22-2.19-5.61-.99-11.23-1.85-17.66-2.9v27.73c0,3.98,.35,7.53-4.72,9.67-4.18,1.76-4.34,10.25-.82,14.33,1.71,1.98,3.87,3.69,6.1,5.08,3.67,2.28,7.57,4.19,11.36,6.29,7.93,4.39,8.16,7.71,.49,12.76-3.31,2.18-7.27,3.36-10.59,5.53-1.43,.94-2.4,3.16-2.69,4.94-.1,.6,2.61,2.44,3.95,2.36,6.8-.43,13.55-1.49,20.35-1.99,7.78-.57,15.59-1,23.39-1.05,2.95-.02,7.36,.06,6.95,4.35-.15,1.61-4.31,3.81-6.81,4.07-15.24,1.54-30.53,2.6-45.81,3.79-3.3,.26-6.88-.17-8.16,4.08,2.64,.78,5.26,2.13,7.93,2.22,8.82,.29,17.66,.11,26.49,.14,1.6,0,3.2,.17,6.33,.34-2.47,2.48-3.83,4.28-5.58,5.55-7.55,5.45-16.28,7.51-25.38,7.92-6.76,.31-13.54,.06-20.4,.06,3.8,16.27,21.59,27.39,38.21,24.24,13.05-2.47,23.66-9.6,33.61-17.86,4.23-3.51,8.5-7.07,12.13-11.15,3.49-3.91,7.32-4.62,13.12-3.27h.01Zm-102.23-61.32c.19-15.14-8.71-22.53-21.48-20.16-2.55,.47-3.54,1.54-3.71,4.24-.79,12.92-1.78,25.83-2.78,38.74-.76,9.77,2.23,12.02,11.08,7.39,3.53-1.85,6.79-4.87,9.18-8.1,5.28-7.11,7.44-15.47,7.7-22.11h0Z"/>
    <path d="M123.01,124.84c6.82-.37,13.9-.57,20.94-1.17,37.66-3.19,75.34-6.11,112.94-9.89,20.69-2.08,41.2-5.86,61.84-8.48,10.37-1.31,20.87-2.52,31.28-2.33,11.06,.2,21.46,3.62,25.62,15.45,1.8,5.13,1.75,10.91,2.53,16.4-.81,.46-1.63,.92-2.44,1.38-1.2-1.68-2.2-3.55-3.63-5-5.75-5.83-12.51-9.76-20.77-11.07-4.15-.66-5.62,.78-5.16,4.74,.02,.16,0,.33,.01,.5,.08,8.81-3.99,14.6-12.21,17.36-30.29,10.19-61.52,16-93.11,20.16-54.99,7.23-110.23,8.23-165.58,6.3-4.29-.15-6.7-1.67-8.25-5.62-1.88-4.8-4.32-9.37-6.41-14.09-3.87-8.76-1.38-14.87,7.43-18.34,4.8-1.89,9.55-3.98,14.47-5.49,4.4-1.36,6.22-3.75,6.73-8.47,2.05-18.87,4.55-37.7,7.02-56.52,.21-1.6,1.08-3.98,2.23-4.4,2.58-.95,5.43-.87,5.36,3.34-.08,5.16-.24,10.34,.13,15.48,.15,2.1,1.01,4.72,2.49,6.08,12.43,11.35,18.5,24.98,15.95,41.96-.04,.29,.19,.62,.56,1.75l.03-.03Z"/>
    <path d="M271.29,472.18c0,8.99,.14,17.99-.09,26.98-.06,2.38-1.13,6.72-1.93,6.76-3.58,.2-8.14,.35-10.69-1.62-8.27-6.41-15.8-13.78-23.66-20.73-6.11-5.4-18.15-5.08-24,.58-6.11,5.9-12.37,11.66-18.23,17.8-3.24,3.39-6.64,4.81-11.38,4.71-13.68-.29-13.68-.09-13.68-13.79s.11-26.98-.05-40.47c-.05-4.19,1.21-5.88,5.69-5.9,5.83-.03,11.1,.78,16.06,4.15,4.67,3.17,9.65,5.95,14.71,8.47,3.92,1.96,8.04,3.88,12.28,4.72,8.93,1.76,16.31-1.2,22.69-7.99,5.22-5.55,11.43-10.17,17.26-15.14,1.24-1.06,2.62-2.24,4.13-2.66,8.11-2.28,10.89-.13,10.9,8.15v25.98h-.01Z"/>
    <path d="M294.57,505.16c.09-4.31,.06-8.62,.29-12.92,1.21-22.87,1.24-45.66-5.66-67.81-1.82-5.83-4.77-11.3-7.17-16.95-.57-1.33-1-2.72-1.5-4.09l-.09,.06c32.98,17.89,67.03,33.26,103.18,43.62,3.06,.88,4.47,2.33,4.2,5.62-.32,3.89-3.12,3.28-5.5,3.28-16.97,.05-33.94,.12-50.9-.04-3.93-.04-5.83,1.1-6.97,5.14-4.35,15.52-14.53,27.45-25.09,39.07-1.56,1.72-3.26,3.32-4.9,4.97l.1,.03v.02Z"/>
    <path d="M144.74,432.38v86.5c-3.27-.92-5.99-1.49-8.56-2.45-13.98-5.22-26.47-12.44-34.71-25.54-2.34-3.72-2.56-6.53,.62-10.12,13.24-14.94,26.19-30.16,39.26-45.25,.83-.96,1.86-1.73,3.39-3.14Z"/>
    <path d="M177.87,24.8c0,2-.01,4,0,6,.02,6.86-.28,7.21-6.95,6.63-10.68-.92-21.4-2.29-30.57-8.23-4.31-2.8-8.26-6.79-11.1-11.09-3.98-6.02-1.55-12.05,5.61-13.18,6.01-.95,12.5-.27,18.56,.87,6.82,1.29,13.3,4.28,20.1,5.8,3.65,.82,4.68,2.34,4.41,5.71-.2,2.48-.04,5-.04,7.49h-.02Z"/>
    <path d="M280.53,403.38l-.3,.26s.19-.14,.2-.17,.1-.09,.1-.09Z"/>
    <path d="M294.47,505.13l-.18-.22s.26,.22,.27,.23-.09-.02-.09-.02h0Z"/>
  </g>
  <text class="cls-1" transform="translate(3.41 706.36)"><tspan x="0" y="0">HNM</tspan></text>
</svg>