<?xml version="1.0" encoding="UTF-8" standalone="no"?>
<!DOCTYPE svg PUBLIC "-//W3C//DTD SVG 1.1//EN" "http://www.w3.org/Graphics/SVG/1.1/DTD/svg11.dtd">
<svg width="100%" height="100%" viewBox="0 0 211 371" version="1.1" xmlns="http://www.w3.org/2000/svg" xmlns:xlink="http://www.w3.org/1999/xlink" xml:space="preserve" xmlns:serif="http://www.serif.com/" style="fill-rule:evenodd;clip-rule:evenodd;stroke-linejoin:round;stroke-miterlimit:2;">
    <g transform="matrix(0.225542,0,0,1,0,0)">
        <rect id="Artboard1" x="0" y="0" width="935.43" height="371" style="fill:none;"/>
        <g id="Artboard11" serif:id="Artboard1">
            <g id="Layer_1-2" transform="matrix(4.43377,0,0,1,-518.253,0)">
                <path d="M254.21,163.86C250.33,169.23 246.74,174.33 243,179.33C237.39,186.83 231.67,194.26 225.98,201.7C221.81,207.15 217.09,208.7 210.45,206.96C203.1,205.03 198.25,200.01 194.28,193.92C187.21,183.09 182.49,171.17 178.87,158.85C176.49,150.76 174.98,142.4 173.03,134.18C172.85,133.42 172.46,132.56 171.9,132.06C162.02,123.31 157.76,111.89 156.14,99.2C155.94,97.64 155.88,96.05 155.73,94.29C156.45,94.34 156.9,94.27 157.28,94.41C173.38,100 190,100.73 206.78,99.64C228.38,98.24 249.26,93.24 269.77,86.57C270.63,86.29 271.49,86.03 272.32,85.77C275.52,92.31 270.72,112.28 264.27,118.45C263.94,115.87 263.64,113.6 263.37,111.33C263.29,110.73 263.27,110.11 263.2,109.51C262.85,106.59 262.09,105.97 259.34,106.99C256.42,108.06 253.57,109.39 250.76,110.74C244.51,113.72 238.17,116.3 231.06,115.79C229.33,115.67 227.64,115.09 225.93,114.79C223.36,114.34 220.79,113.94 217.84,113.46L217.84,126.15C217.84,127.97 218,129.6 215.68,130.58C213.76,131.38 213.69,135.27 215.3,137.14C216.08,138.05 217.07,138.83 218.09,139.47C219.77,140.51 221.56,141.39 223.29,142.35C226.92,144.36 227.02,145.88 223.52,148.19C222,149.19 220.19,149.73 218.67,150.72C218.02,151.15 217.57,152.17 217.44,152.98C217.39,153.25 218.63,154.1 219.25,154.06C222.36,153.86 225.46,153.38 228.56,153.15C232.12,152.89 235.7,152.69 239.27,152.67C240.62,152.66 242.64,152.7 242.45,154.66C242.38,155.4 240.48,156.4 239.33,156.52C232.35,157.23 225.36,157.71 218.36,158.26C216.85,158.38 215.21,158.18 214.63,160.13C215.84,160.49 217.04,161.1 218.26,161.15C222.3,161.28 226.35,161.2 230.39,161.21C231.13,161.21 231.85,161.29 233.29,161.37C232.16,162.5 231.54,163.33 230.74,163.91C227.28,166.4 223.28,167.35 219.12,167.53C216.02,167.67 212.92,167.56 209.78,167.56C211.52,175.01 219.66,180.1 227.27,178.66C233.24,177.53 238.1,174.27 242.66,170.49C244.6,168.88 246.55,167.25 248.21,165.38C249.81,163.59 251.56,163.27 254.22,163.88L254.22,163.86L254.21,163.86ZM207.42,135.79C207.51,128.86 203.43,125.47 197.59,126.56C196.42,126.77 195.97,127.27 195.89,128.5C195.53,134.42 195.07,140.33 194.62,146.24C194.27,150.71 195.64,151.74 199.69,149.62C201.3,148.77 202.8,147.39 203.89,145.91C206.31,142.66 207.29,138.83 207.42,135.79Z" style="fill-rule:nonzero;"/>
                <path d="M173.06,61.89C176.18,61.72 179.42,61.63 182.65,61.35C199.89,59.89 217.14,58.55 234.35,56.82C243.82,55.87 253.21,54.14 262.66,52.94C267.41,52.34 272.22,51.79 276.98,51.87C282.04,51.96 286.8,53.53 288.71,58.94C289.53,61.29 289.51,63.94 289.87,66.45C289.5,66.66 289.12,66.87 288.75,67.08C288.2,66.31 287.74,65.45 287.09,64.79C284.46,62.12 281.37,60.32 277.58,59.73C275.68,59.43 275.01,60.09 275.22,61.9C275.23,61.98 275.22,62.05 275.22,62.13C275.25,66.16 273.39,68.82 269.63,70.08C255.76,74.75 241.47,77.4 227,79.31C201.83,82.62 176.54,83.08 151.2,82.19C149.24,82.12 148.13,81.43 147.43,79.62C146.57,77.42 145.45,75.33 144.5,73.17C142.73,69.16 143.87,66.36 147.9,64.78C150.1,63.92 152.27,62.96 154.52,62.27C156.53,61.64 157.37,60.55 157.6,58.39C158.54,49.75 159.68,41.13 160.81,32.52C160.91,31.78 161.3,30.7 161.83,30.51C163.01,30.08 164.31,30.11 164.28,32.04C164.25,34.4 164.17,36.78 164.34,39.13C164.41,40.09 164.8,41.29 165.48,41.91C171.17,47.11 173.95,53.35 172.78,61.12C172.76,61.25 172.87,61.4 173.03,61.92L173.04,61.92L173.06,61.9L173.06,61.89Z" style="fill-rule:nonzero;"/>
                <path d="M240.94,220.9C240.94,225.02 241,229.14 240.9,233.25C240.87,234.34 240.38,236.32 240.01,236.35C238.37,236.44 236.28,236.51 235.12,235.61C231.33,232.68 227.88,229.3 224.29,226.12C221.49,223.65 215.98,223.79 213.3,226.39C210.5,229.09 207.64,231.73 204.95,234.54C203.47,236.09 201.91,236.74 199.74,236.69C193.48,236.56 193.48,236.65 193.48,230.37C193.48,224.09 193.53,218.02 193.46,211.84C193.44,209.92 194.02,209.15 196.06,209.14C198.73,209.13 201.14,209.5 203.41,211.04C205.55,212.49 207.83,213.77 210.14,214.92C211.93,215.82 213.82,216.7 215.76,217.08C219.85,217.88 223.23,216.53 226.14,213.42C228.53,210.88 231.37,208.77 234.04,206.49C234.61,206 235.24,205.47 235.93,205.27C239.64,204.23 240.91,205.21 240.92,209L240.92,220.9L240.94,220.9Z" style="fill-rule:nonzero;"/>
                <path d="M251.59,236C251.63,234.03 251.62,232.05 251.72,230.08C252.28,219.61 252.29,209.18 249.13,199.04C248.3,196.37 246.95,193.87 245.85,191.28C245.59,190.67 245.39,190.04 245.16,189.41L245.12,189.44C260.22,197.63 275.81,204.66 292.35,209.41C293.75,209.82 294.4,210.48 294.27,211.98C294.13,213.76 292.84,213.48 291.75,213.48C283.98,213.5 276.21,213.53 268.45,213.46C266.65,213.44 265.78,213.96 265.26,215.82C263.27,222.92 258.61,228.39 253.78,233.71C253.07,234.5 252.29,235.23 251.53,235.98L251.58,235.98L251.58,236L251.59,236Z" style="fill-rule:nonzero;"/>
                <path d="M183,202.68L183,242.28C181.5,241.86 180.26,241.6 179.08,241.16C172.68,238.77 166.96,235.46 163.19,229.47C162.12,227.77 162.02,226.48 163.47,224.84C169.53,218 175.46,211.03 181.44,204.12C181.82,203.68 182.29,203.33 182.99,202.68L183,202.68Z" style="fill-rule:nonzero;"/>
                <path d="M198.17,16.09L198.17,18.84C198.18,21.98 198.04,22.14 194.99,21.87C190.1,21.45 185.2,20.82 180.99,18.1C179.02,16.82 177.21,14.99 175.91,13.02C174.09,10.26 175.2,7.5 178.48,6.99C181.23,6.56 184.2,6.87 186.98,7.39C190.1,7.98 193.07,9.35 196.18,10.05C197.85,10.43 198.32,11.12 198.2,12.67C198.11,13.8 198.18,14.96 198.18,16.1L198.17,16.1L198.17,16.09Z" style="fill-rule:nonzero;"/>
                <path d="M245.16,189.4L245.02,189.52C245.02,189.52 245.11,189.46 245.11,189.44C245.11,189.43 245.16,189.4 245.16,189.4Z" style="fill-rule:nonzero;"/>
                <path d="M251.55,235.98L251.47,235.88L251.59,235.98L251.55,235.97L251.55,235.98Z" style="fill-rule:nonzero;"/>
            </g>
            <g transform="matrix(4.43377,0,0,1,6.26218,328.1)">
                <text x="0px" y="0px" style="font-family:'YuMin_36pKn-Medium', 'YuMincho +36p Kana', serif;font-weight:500;font-size:79.26px;">HNM</text>
            </g>
            <g transform="matrix(4.43377,0,0,1,33.2639,350.71)">
                <text x="0px" y="0px" style="font-family:'YuMin_36pKn-Medium', 'YuMincho +36p Kana', serif;font-weight:500;font-size:13.56px;">HAIR</text>
                <g transform="matrix(1,0,0,1,36.49,0)">
                    <text x="0px" y="0px" style="font-family:'YuMin_36pKn-Medium', 'YuMincho +36p Kana', serif;font-weight:500;font-size:13.56px;">S<tspan x="7.428px " y="0px ">Y</tspan></text>
                </g>
                <g transform="matrix(1,0,0,1,53.16,0)">
                    <text x="0px" y="0px" style="font-family:'YuMin_36pKn-Medium', 'YuMincho +36p Kana', serif;font-weight:500;font-size:13.56px;">STEMS SPECIALISTS</text>
                </g>
            </g>
        </g>
    </g>
</svg>
